<svg xmlns="http://www.w3.org/2000/svg" width="49.364" height="49.364" viewBox="0 0 49.364 49.364">
  <defs>
    <style>
      .cls-1 {
        fill: #495872;
      }
    </style>
  </defs>
  <g id="validation" transform="translate(0 0)">
    <path id="Path_510" data-name="Path 510" class="cls-1" d="M81.44,339.28l-2.045,2.045,3.915,3.915,6.807-6.808-2.045-2.045-4.762,4.762Zm0,0" transform="translate(-71.74 -303.954)"/>
    <path id="Path_511" data-name="Path 511" class="cls-1" d="M0,36.348a13.016,13.016,0,1,0,26.032,0c0-.364-.017-.726-.046-1.087q.307.087.613.159c2.644.61,5.427.327,7.36-1.606l4.09-4.09c2.5-2.5,2.5-6.894.085-11.2l8.7-6.794a6.553,6.553,0,1,0-9.194-9.2l-6.8,8.7c-4.31-2.413-8.7-2.418-11.2.085L15.55,15.406c-1.731,1.731-2.3,4.345-1.606,7.359.047.2.1.409.159.613-.361-.03-.723-.047-1.087-.047A13.031,13.031,0,0,0,0,36.348ZM39.922,4.305a3.661,3.661,0,1,1,5.135,5.139L31.464,20.057A2.652,2.652,0,0,1,29.307,17.9ZM29.04,13.542l-2.718,3.412v.5a5.637,5.637,0,0,0,5.591,5.591h.5l3.412-2.719c1.546,2.982,1.656,5.878.181,7.354a4.008,4.008,0,0,1-2.92,1.054c-2.488,0-5.7-1.493-8.329-4.122a14.171,14.171,0,0,1-3.9-6.585c-.463-2.007-.168-3.664.833-4.664C23.162,11.885,26.058,12,29.04,13.542ZM17.8,17.249a16.117,16.117,0,0,0,4.912,9.406,16.293,16.293,0,0,0,9.406,4.911c-.121.064-1.307,1.856-4.866,1.035a14.17,14.17,0,0,1-6.585-3.9,14.173,14.173,0,0,1-3.9-6.585C15.939,18.545,17.735,17.369,17.8,17.249Zm.821,13.5a19.014,19.014,0,0,0,4.236,3.211,10.121,10.121,0,1,1-7.446-7.446A19.01,19.01,0,0,0,18.618,30.745Zm0,0" transform="translate(0 0)"/>
  </g>
</svg>
