<svg xmlns="http://www.w3.org/2000/svg" width="1257.933" height="500.459" viewBox="0 0 1257.933 500.459">
  <defs>
    <style>
      .cls-1, .cls-2, .cls-3, .cls-4, .cls-5, .cls-6 {
        fill: #cdd6e5;
      }

      .cls-1 {
        opacity: 0.3;
      }

      .cls-2 {
        opacity: 0.5;
      }

      .cls-3 {
        opacity: 0.6;
      }

      .cls-4 {
        opacity: 0.81;
      }

      .cls-5, .cls-8 {
        opacity: 0.9;
      }

      .cls-7 {
        fill: #b1bdd1;
      }

      .cls-8 {
        fill: #8d9bb4;
      }

      .cls-9 {
        fill: #fff;
      }

      .cls-10 {
        fill: #0e2549;
      }

      .cls-11 {
        fill: #e2474b;
      }

      .cls-12 {
        fill: #a1c5e2;
      }

      .cls-13 {
        fill: #eff5ff;
      }

      .cls-14 {
        fill: #1b2746;
      }

      .cls-15, .cls-16, .cls-21 {
        fill: #495872;
      }

      .cls-16 {
        font-size: 16px;
      }

      .cls-16, .cls-19 {
        font-family: Poppins-Medium, Poppins;
        font-weight: 500;
      }

      .cls-17, .cls-22, .cls-23, .cls-25 {
        fill: none;
      }

      .cls-17 {
        stroke: #db0028;
      }

      .cls-18, .cls-20 {
        fill: #db0028;
      }

      .cls-18 {
        font-size: 23px;
        font-family: Poppins-Black, Poppins;
        font-weight: 800;
      }

      .cls-20 {
        font-size: 21px;
        font-family: LiterataBook-Italic, Literata Book;
        font-style: italic;
      }

      .cls-21, .cls-22, .cls-23 {
        stroke: #495872;
      }

      .cls-21 {
        stroke-width: 0.25px;
      }

      .cls-22 {
        stroke-width: 2px;
      }

      .cls-24 {
        stroke: none;
      }
    </style>
  </defs>
  <g id="Group_941" data-name="Group 941" transform="translate(-302 -1205.852)">
    <circle id="Ellipse_7" data-name="Ellipse 7" class="cls-1" cx="58" cy="58" r="58" transform="translate(808 1239)"/>
    <circle id="Ellipse_8" data-name="Ellipse 8" class="cls-2" cx="58" cy="58" r="58" transform="translate(943.001 1239)"/>
    <circle id="Ellipse_9" data-name="Ellipse 9" class="cls-3" cx="58" cy="58" r="58" transform="translate(1076.999 1239)"/>
    <circle id="Ellipse_10" data-name="Ellipse 10" class="cls-4" cx="58" cy="58" r="58" transform="translate(1212 1239)"/>
    <circle id="Ellipse_23" data-name="Ellipse 23" class="cls-5" cx="57" cy="57" r="57" transform="translate(810 1423)"/>
    <circle id="Ellipse_85" data-name="Ellipse 85" class="cls-6" cx="57" cy="57" r="57" transform="translate(946.001 1423)"/>
    <circle id="Ellipse_86" data-name="Ellipse 86" class="cls-7" cx="57" cy="57" r="57" transform="translate(1080.999 1423)"/>
    <circle id="Ellipse_87" data-name="Ellipse 87" class="cls-8" cx="57" cy="57" r="57" transform="translate(1217 1423)"/>
    <g id="Group_313" data-name="Group 313" transform="translate(351.107 632.231)">
      <path id="Path_416" data-name="Path 416" class="cls-9" d="M1177.238,1428.329l.021,11.345h15.718l1.311-10.764Z" transform="translate(-60.11 -379.598)"/>
      <path id="Path_417" data-name="Path 417" class="cls-10" d="M1193.053,1439.832h-17.421l-.024-13.185,18.972.646Zm-15.615-1.809h14.014l1.1-8.99-15.126-.516Z" transform="translate(-59.386 -378.851)"/>
      <path id="Path_418" data-name="Path 418" class="cls-11" d="M1156.948,1447.506s-22.717,7.21-23.5,13.152h40.733v-13.152Z" transform="translate(-40.662 -388.115)"/>
      <path id="Path_419" data-name="Path 419" class="cls-9" d="M1291.219,1428.576l.429,11.477h15.718l.744-11.724Z" transform="translate(-110.732 -379.598)"/>
      <path id="Path_420" data-name="Path 420" class="cls-10" d="M1307.465,1440.224h-17.437l-.5-13.271,18.794-.276Zm-15.7-1.809h14l.629-9.9-14.99.22Z" transform="translate(-109.983 -378.865)"/>
      <path id="Path_421" data-name="Path 421" class="cls-11" d="M1271.664,1448.188s-22.717,7.21-23.5,13.152H1288.9v-13.152Z" transform="translate(-91.61 -388.418)"/>
      <path id="Path_422" data-name="Path 422" class="cls-10" d="M1245.5,1467.4v3.416h43.278v-3.906Z" transform="translate(-90.426 -396.732)"/>
      <path id="Path_423" data-name="Path 423" class="cls-10" d="M1174.437,1466.488v3.641h-43.278v-3.906Z" transform="translate(-39.645 -396.428)"/>
      <path id="Path_424" data-name="Path 424" class="cls-10" d="M1280.755,1454.194a.817.817,0,0,1-.238-.034l-7.854-2.35a.83.83,0,0,1,.475-1.59l7.853,2.35a.83.83,0,0,1-.237,1.625Z" transform="translate(-102.228 -389.305)"/>
      <path id="Path_425" data-name="Path 425" class="cls-10" d="M1273.691,1458.422a.839.839,0,0,1-.239-.035l-7.853-2.35a.83.83,0,1,1,.476-1.59l7.853,2.35a.83.83,0,0,1-.237,1.625Z" transform="translate(-99.091 -391.182)"/>
      <path id="Path_426" data-name="Path 426" class="cls-10" d="M1263.9,1462.649a.821.821,0,0,1-.238-.034l-7.854-2.35a.83.83,0,0,1,.476-1.591l7.853,2.35a.83.83,0,0,1-.237,1.625Z" transform="translate(-94.743 -393.06)"/>
      <path id="Path_427" data-name="Path 427" class="cls-10" d="M1168.047,1452.074a.817.817,0,0,1-.238-.034l-7.853-2.35a.83.83,0,0,1,.475-1.59l7.853,2.35a.83.83,0,0,1-.237,1.625Z" transform="translate(-52.172 -388.363)"/>
      <path id="Path_428" data-name="Path 428" class="cls-10" d="M1160.984,1456.3a.822.822,0,0,1-.238-.035l-7.853-2.35a.83.83,0,0,1,.476-1.591l7.853,2.35a.83.83,0,0,1-.237,1.625Z" transform="translate(-49.035 -390.241)"/>
      <path id="Path_429" data-name="Path 429" class="cls-10" d="M1151.195,1460.529a.821.821,0,0,1-.239-.035l-7.853-2.35a.83.83,0,1,1,.476-1.59l7.853,2.35a.83.83,0,0,1-.237,1.625Z" transform="translate(-44.687 -392.118)"/>
      <path id="Path_430" data-name="Path 430" class="cls-10" d="M1232.208,1273.315h25.016l-.83-199.275-66.4,3.329-19.9,195.945h24.08l25.21-124.944-2.885-27.4Z" transform="translate(-56.934 -222.249)"/>
      <path id="Path_431" data-name="Path 431" class="cls-9" d="M1249.173,873.394s1.769,18.584.283,20.639-11.6,1.329-11.6,1.329l15.922,46.816,30.724-2.969,1.992-31.452s-14.024-11.424-14.87-13.77c-1.171-3.247-1.174-20.592-1.174-20.592Z" transform="translate(-87.031 -133.137)"/>
      <path id="Path_432" data-name="Path 432" class="cls-10" d="M1252.243,942.4,1235.7,893.772l1.255.09c4.641.333,10.118.051,10.867-.985.811-1.171.414-11.125-.437-20.071a.835.835,0,1,1,1.662-.158c.422,4.433,1.679,19.064.128,21.208-1.417,1.96-7.807,1.912-11.089,1.748l15.309,45.013,29.358-2.837,1.919-30.314c-2.982-2.438-13.951-11.521-14.795-13.862-1.206-3.346-1.224-20.161-1.224-20.875a.835.835,0,0,1,1.67,0c0,4.784.2,17.759,1.125,20.309.529,1.468,8.862,8.723,14.611,13.406l.333.272-2.064,32.59Z" transform="translate(-86.076 -132.47)"/>
      <path id="Path_433" data-name="Path 433" class="cls-9" d="M1143.836,936.737c-6.542,5.966-9.567,5.708-16.986,5.369-3.115-.142-31.647-23.38-31.745-25.293s-1.386-12.237-2.6-9.1a40.965,40.965,0,0,0-1.721,6.119.383.383,0,0,1-.695.135c-1.873-2.813-8.252-12.15-9.177-10.32-1.087,2.15-1.512,8.918-1.234,11.527.207,1.931,3.85,7.189,8.51,9.3,3.009,1.365,29.562,43.554,45.674,41.11s25.718-22.641,25.718-22.641S1150.083,931.04,1143.836,936.737Z" transform="translate(-16.742 -146.468)"/>
      <path id="Path_434" data-name="Path 434" class="cls-10" d="M1131.855,965.844c-12.484,0-29.546-22.155-38.88-34.276-2.643-3.432-5.14-6.674-5.769-7.01-4.738-2.147-8.709-7.514-8.969-9.943-.276-2.58.1-9.568,1.315-11.973a1.184,1.184,0,0,1,1-.673c.584-.037,2.12-.13,9.008,10.091a39.076,39.076,0,0,1,1.55-5.28c.4-1.019.971-1.155,1.385-1.087.655.106,1.305.563,2.068,4.943.371,2.132.634,4.445.693,5.4,1.491,2.951,28.451,24.394,30.99,24.63l.41.019c7.15.328,9.822.45,16-5.18h0a6.425,6.425,0,0,1,5.006-1.73c5.8.46,11.656,7.721,11.9,8.029l.313.392-.216.452c-.4.841-9.977,20.61-26.322,23.089A9.941,9.941,0,0,1,1131.855,965.844Zm-51.011-62.164c-.863,2.22-1.277,8.29-1.013,10.765.163,1.519,3.545,6.618,8.044,8.657.893.4,2.5,2.461,6.37,7.488,8.831,11.467,27.205,35.326,38.853,33.559,14.172-2.15,23.347-18.759,24.885-21.737-1.273-1.481-6.048-6.695-10.45-7.042a4.809,4.809,0,0,0-3.8,1.317h0c-6.664,6.078-9.948,5.927-17.15,5.6l-.412-.019c-2.266-.1-12.972-8.538-17.471-12.159-5.581-4.493-14.956-12.274-15.039-13.894a50.852,50.852,0,0,0-1.305-8.179,42.562,42.562,0,0,0-1.434,5.317,1.185,1.185,0,0,1-2.147.418C1084.662,907.588,1081.89,904.327,1080.845,903.68Z" transform="translate(-16.103 -145.826)"/>
      <path id="Path_435" data-name="Path 435" class="cls-11" d="M1167.791,910.7c-9.286,3.389-20.946,29.149-28.668,30.615-10,1.9-34.034-22.327-34.034-22.327l-11.228,13.317s27.949,37.375,42.371,40.733c5.807,1.351,17.944-7.311,17.944-7.311-1.515,5.833,1.959,37.73,1.959,37.73l66.973,3.388,5.787-29.388s12.391-64.156-13.111-68c-2.447-.369-12.8-2.854-18.863,1.623-2.8,2.068-10.119,2.61-11.842-3.46C1185.081,907.622,1169.812,909.964,1167.791,910.7Z" transform="translate(-23.081 -148.339)"/>
      <path id="Path_436" data-name="Path 436" class="cls-9" d="M1211.517,945.859c-5.1,7.236-8.111,7.637-15.429,8.906-3.073.533-35.944-16.006-36.453-17.853s-3.992-11.65-4.5-8.325a41.062,41.062,0,0,0-.362,6.346.383.383,0,0,1-.649.281c-2.436-2.342-10.678-10.084-11.187-8.1-.6,2.334.446,9.034,1.281,11.521.619,1.842,5.31,6.19,10.315,7.248,3.233.684,38.259,36.156,53.464,30.295s20.232-27.654,20.232-27.654S1216.389,938.949,1211.517,945.859Z" transform="translate(-44.796 -156.853)"/>
      <path id="Path_437" data-name="Path 437" class="cls-10" d="M1203.59,976.979c-12.453,0-31.8-16.207-42.728-25.357-3.321-2.782-6.459-5.409-7.145-5.6-5.089-1.076-10.125-5.459-10.9-7.776-.826-2.46-1.966-9.364-1.3-11.975a1.184,1.184,0,0,1,.834-.874c.567-.16,2.041-.584,10.972,7.911a39.13,39.13,0,0,1,.376-5.49c.167-1.081.7-1.336,1.118-1.36.669-.035,1.4.267,3.086,4.38.823,2,1.578,4.2,1.84,5.122,2.071,2.534,32.4,17.373,35.485,17.373a.611.611,0,0,0,.088-.006l.4-.07c7.051-1.221,9.689-1.678,14.5-8.507h0a6.423,6.423,0,0,1,4.515-2.769c5.771-.8,13.046,5.026,13.354,5.274l.389.315-.112.489c-.209.907-5.3,22.276-20.725,28.221A11.192,11.192,0,0,1,1203.59,976.979ZM1143,927.005c-.364,2.354.54,8.37,1.332,10.729.486,1.448,4.888,5.7,9.721,6.719.96.2,2.972,1.864,7.837,5.938,11.094,9.292,34.184,28.63,45.174,24.392,13.388-5.16,18.755-23.353,19.613-26.592-1.562-1.172-7.347-5.229-11.724-4.623a4.814,4.814,0,0,0-3.423,2.1c-5.2,7.372-8.438,7.933-15.54,9.163l-.407.071c-2.232.383-14.508-5.54-19.681-8.106-6.419-3.185-17.25-8.76-17.682-10.325a50.691,50.691,0,0,0-3.037-7.7,42.787,42.787,0,0,0-.255,5.5,1.185,1.185,0,0,1-2.006.871C1147.572,930,1144.162,927.413,1143,927.005Z" transform="translate(-44.156 -156.207)"/>
      <path id="Path_438" data-name="Path 438" class="cls-10" d="M1267.923,807.544c-3.848-.394-13.185-1.472-14.607,5.261A178.164,178.164,0,0,0,1250.58,836a4.271,4.271,0,0,0,3.38,4.441l23.189,4.9a4.274,4.274,0,0,0,4.936-2.834c2.317-6.948,7.09-21.687,6.726-24.138C1287.571,810.024,1274.017,808.168,1267.923,807.544Z" transform="translate(-92.68 -103.753)"/>
      <path id="Path_439" data-name="Path 439" class="cls-11" d="M1248.658,962.212s-10.22,26.424-20.7,28.988c-16.78,4.106-60.021-34.245-60.021-34.245l8.871-14.449,38.2,14.941,13.334-16.269,23.18,11.128Z" transform="translate(-55.981 -163.242)"/>
      <path id="Path_440" data-name="Path 440" class="cls-10" d="M1224.266,991.694c-18.506,0-56.267-33.293-57.953-34.788l-.6-.535,9.713-15.82,38.3,14.979,12.892-15.729a.96.96,0,0,1,1.485,1.218l-13.776,16.809-38.1-14.9L1168.193,956c5.282,4.588,43.492,37.187,58.549,33.5,9.877-2.416,19.93-28.142,20.03-28.4a.96.96,0,1,1,1.792.693c-.425,1.1-10.526,26.922-21.366,29.575A12.343,12.343,0,0,1,1224.266,991.694Z" transform="translate(-54.99 -162.475)"/>
      <path id="Path_441" data-name="Path 441" class="cls-9" d="M1274.247,853.1c1.526-1.037,3.116-6.077,4.5-11.919a.5.5,0,0,1,.323-.357c1.714-.585,4.327-2.061,4.878-4.987.478-2.535-1.458-2.391-3.062-1.882a.4.4,0,0,1-.5-.469c1.382-7.1,2.3-13.393,2.3-13.393l-27.556-5.819s-1.279,6.325-2.51,13.461c-.055.32-2.465,17.452-2.126,19.12a4.818,4.818,0,0,0,1.539,2.5s1.463,1.819,11.478,3.935Z" transform="translate(-92.633 -106.881)"/>
      <path id="Path_442" data-name="Path 442" class="cls-10" d="M1262.853,853.339a.842.842,0,0,1-.174-.018c-9.34-1.973-11.484-3.712-11.907-4.17a5.6,5.6,0,0,1-1.758-2.922c-.389-1.913,2.093-19.267,2.12-19.429,1.219-7.067,2.5-13.422,2.515-13.485l.168-.829,29.153,6.157-.114.779c-.009.061-.88,5.985-2.177,12.747a3.085,3.085,0,0,1,2.818.4,2.654,2.654,0,0,1,.61,2.632c-.658,3.49-3.762,5.02-5.253,5.562-2.284,9.595-3.832,11.582-4.8,12.239a.839.839,0,0,1-.943-1.387c.52-.353,1.965-2.172,4.154-11.418a1.33,1.33,0,0,1,.868-.958c1.127-.385,3.8-1.579,4.326-4.349.12-.633.04-.966-.074-1.067-.18-.158-.788-.217-1.911.139a1.214,1.214,0,0,1-1.182-.252,1.258,1.258,0,0,1-.393-1.176c1.082-5.564,1.889-10.679,2.179-12.576l-25.953-5.481c-.385,1.945-1.382,7.056-2.34,12.608-.2,1.229-2.408,17.343-2.13,18.812a4.008,4.008,0,0,0,1.29,2.059l.08.086c.04.037,1.72,1.68,11,3.64a.838.838,0,0,1-.172,1.658Z" transform="translate(-91.97 -106.086)"/>
      <path id="Path_443" data-name="Path 443" class="cls-10" d="M1284.184,849.293a1.488,1.488,0,0,1-.226-.018,1.425,1.425,0,0,1-1.182-1.631l.092-.575a1.424,1.424,0,1,1,2.813.449l-.092.575A1.426,1.426,0,0,1,1284.184,849.293Z" transform="translate(-106.974 -120.912)"/>
      <path id="Path_444" data-name="Path 444" class="cls-10" d="M1261.334,844.455a1.454,1.454,0,0,1-.283-.028,1.425,1.425,0,0,1-1.115-1.678l.136-.673a1.425,1.425,0,1,1,2.793.564l-.136.673A1.424,1.424,0,0,1,1261.334,844.455Z" transform="translate(-96.826 -118.72)"/>
      <path id="Path_445" data-name="Path 445" class="cls-10" d="M1287.062,842.093a1.137,1.137,0,0,1-.631-.192,5.66,5.66,0,0,0-3.914-.773,1.14,1.14,0,0,1-.49-2.226,7.912,7.912,0,0,1,5.67,1.1,1.14,1.14,0,0,1-.634,2.088Z" transform="translate(-106.255 -117.761)"/>
      <path id="Path_446" data-name="Path 446" class="cls-10" d="M1269.106,863.909c.3.735-2.388,2.468-4.946,1.809-4.174-1.076-4.87-4.239-3.9-3.819a12.994,12.994,0,0,0,4.238,1.951C1267.21,864.491,1268.9,863.416,1269.106,863.909Z" transform="translate(-96.812 -128.015)"/>
      <path id="Path_447" data-name="Path 447" class="cls-10" d="M1264.847,848.876a.958.958,0,0,1-.391-.083c-.785-.351-2.607-1.319-2.571-2.745.027-1.042.209-1.321,1.957-3.99.367-.56.809-1.236,1.343-2.059a7.7,7.7,0,0,0,.862-2.494c-.456-.678-3.589-1.867-5.572-1.188a.96.96,0,1,1-.621-1.817,8.875,8.875,0,0,1,7.022,1.191,2.19,2.19,0,0,1,1.095,1.745,9.2,9.2,0,0,1-1.115,3.511l-.038.064c-.545.84-1,1.53-1.369,2.1-1.563,2.387-1.629,2.512-1.643,2.93a3.988,3.988,0,0,0,1.432,1,.961.961,0,0,1-.392,1.838Z" transform="translate(-96.514 -115.732)"/>
      <path id="Path_448" data-name="Path 448" class="cls-12" d="M1299.11,1122.088a.9.9,0,0,0,1.029-1.486L1285,1110.111a.9.9,0,0,0-1.03,1.486l11.071,7.669,3.684,165.606a.9.9,0,0,0,.9.884h.021a.9.9,0,0,0,.884-.924l-3.654-164.294Z" transform="translate(-107.338 -238.198)"/>
      <path id="Path_449" data-name="Path 449" class="cls-12" d="M1234.718,1166.586l-5.758-33.98V1116.3a.9.9,0,1,0-1.809,0v16.46l1.308,7.716-25.824,146.64a.9.9,0,0,0,.733,1.047.848.848,0,0,0,.158.014.905.905,0,0,0,.889-.748l24.933-141.7,3.586,21.161a.905.905,0,0,0,.891.754.876.876,0,0,0,.152-.013A.9.9,0,0,0,1234.718,1166.586Z" transform="translate(-71.383 -240.615)"/>
      <path id="Path_450" data-name="Path 450" class="cls-11" d="M1143.138,623.578c11.38-.3,11.888,8.644,13.746,13.49a.261.261,0,0,0,.5-.1v-3.577c0-32.183-25.518-58.273-57-58.273s-57,26.089-57,58.273v3.875a.051.051,0,0,0,.1.011c1.33-6.559,6.22-13.672,14.147-13.7,11.332-.043,13.964,12.495,14.4,15.172a.064.064,0,0,0,.126,0c.335-2.676,2.545-15.174,14.654-15.334,7.089-.093,13.47,4.247,14.107,14.174,0,.021.027.022.028,0,.553-8.378,6.954-14.168,14.033-14.174,12.027-.011,13.807,12.273,14.032,14.511a.02.02,0,0,0,.039,0C1129.158,635.73,1130.3,623.919,1143.138,623.578Z" transform="translate(-0.666 -0.667)"/>
      <path id="Path_451" data-name="Path 451" class="cls-10" d="M1071.433,638.971a.889.889,0,0,1-.885-.757c-.391-2.416-2.879-14.468-13.516-14.468h-.053c-7.351.028-12.065,6.776-13.333,13.034a.882.882,0,0,1-1,.7.922.922,0,0,1-.754-.93v-3.822c0-32.592,25.943-59.107,57.831-59.107s57.831,26.515,57.831,59.107v3.525a1.132,1.132,0,0,1-.839,1.117,1.083,1.083,0,0,1-1.276-.67c-.307-.8-.572-1.688-.853-2.628-1.481-4.952-3.152-10.557-12.092-10.328h0c-12.049.321-13.169,11.345-13.271,13.552h0a.844.844,0,0,1-.814.8h-.019a.843.843,0,0,1-.867-.75l0-.019c-.23-2.288-1.952-13.751-13.186-13.751h-.014c-7.023.007-12.7,5.766-13.2,13.4l-.051.769-1.568.034-.073-.8c-.642-10-7.265-13.492-13.265-13.4-11.45.152-13.536,12.192-13.838,14.6a.888.888,0,0,1-.873.785Zm-.763-1v0Zm1.524-.028v0Zm-30.182-1.5v0Zm15.022-14.368c9.093,0,12.867,7.607,14.348,12.438,1.359-4.848,5.04-12.473,14.758-12.6,5.771-.062,12.026,2.726,14.206,10.447a14.863,14.863,0,0,1,13.972-10.447h.017c8.937,0,12.524,6.323,13.953,10.945,1.276-4.483,4.744-10.53,14.161-10.781,9.543-.251,11.949,5.692,13.438,10.533-.062-31.619-25.233-57.322-56.163-57.322-30.641,0-55.631,25.226-56.156,56.437,2.412-5.192,7.014-9.624,13.4-9.648Z"/>
      <rect id="Rectangle_30" data-name="Rectangle 30" class="cls-13" width="70.259" height="56.003" transform="translate(1062.429 689.131)"/>
      <path id="Path_452" data-name="Path 452" class="cls-9" d="M1078.837,828.193h0Z" transform="translate(-16.408 -113.062)"/>
      <path id="Path_453" data-name="Path 453" class="cls-10" d="M1113.585,779.722a.8.8,0,0,0-1.156,0h-35.092v57.671h71.926V779.722Zm34.01,26.032h-33.786V781.39H1147.6Zm-35.39-24.364v24.364H1079V781.39ZM1079,807.357h33.2v28.368H1079Zm34.8,28.368V807.357H1147.6v28.368Z" transform="translate(-15.742 -91.425)"/>
      <path id="Path_454" data-name="Path 454" class="cls-14" d="M1156.921,685.384a.8.8,0,0,0-1.132-.06l-54.853,49.308,28.277-47.428-1.432-.854-29.42,49.345,2.836-49.206-1.664-.1-2.816,48.857-24.5-48.026-1.485.758,23.693,46.453-50.939-48.88a.8.8,0,1,0-1.109,1.157l54.268,52.075,1.379,2.7.133-2.3a1.223,1.223,0,0,0,.343-.214l58.358-52.459A.8.8,0,0,0,1156.921,685.384Z" transform="translate(-0.107 -49.519)"/>
      <path id="Path_455" data-name="Path 455" class="cls-10" d="M1279.552,816.683s-22.481,1.368-30.68-7.6,7.168-6.111,16.194-3.348S1286.647,812.891,1279.552,816.683Z" transform="translate(-90.89 -101.877)"/>
    </g>
    <g id="Group_315" data-name="Group 315" transform="translate(-60.112 467.713)">
      <path id="Path_456" data-name="Path 456" class="cls-10" d="M612.781,839.688a28.968,28.968,0,0,0-9.008-5.888c3.286-7.857-4-28.8-19.417-18.427-4.24,2.853-5.647,11.23-3.392,17.476-19.578,5.057-18.867,23.669-17.721,27.412,2.409,7.87,5.009,11.177,9.4,19.254,2.222,4.087,29.1,11.518,41.291-9.974C618.267,861.9,623.207,849.678,612.781,839.688Z" transform="translate(-71.779 0)"/>
      <path id="Path_457" data-name="Path 457" class="cls-9" d="M568.187,899.975s-12.135,21.7-13.6,22.385c-21.317,10.029-21.795,20.23-23.98,19.59s29.2,11.907,29.2,11.907l20.31,1.888,4.965-13.118s-10.324-8.192-11.146-11.85S584.372,911.4,584.372,911.4Z" transform="translate(-60.238 -31.276)"/>
      <path id="Path_458" data-name="Path 458" class="cls-10" d="M580.207,955.989l-21.18-1.968-.13-.052s-7.344-2.936-14.68-5.9c-3.669-1.481-7.337-2.967-10.082-4.094-1.377-.566-2.523-1.041-3.322-1.381-1.513-.643-2.08-.884-1.775-1.768a.985.985,0,0,1,1.157-.622,10.793,10.793,0,0,0,1.13-1.563c2.283-3.488,7.03-10.742,22.236-17.91,1.189-1.058,7.678-12.084,13.232-22.014l.523-.934,17.852,12.606-.565.789c-4.57,6.379-10.78,16.367-10.279,18.6.544,2.423,6.916,8.222,10.8,11.307l.551.438Zm-20.724-3.861,19.441,1.807,4.458-11.777c-2.328-1.89-10.152-8.457-10.937-11.953-.806-3.588,7.281-15.456,10.03-19.353L567.953,900.6c-5.507,9.822-12.109,21.2-13.506,21.852-14.764,6.946-19.32,13.907-21.509,17.253-.322.493-.617.943-.909,1.321C536.621,942.951,550.06,948.36,559.483,952.128Z" transform="translate(-59.687 -30.494)"/>
      <path id="Path_459" data-name="Path 459" class="cls-9" d="M583.308,890.9c-1.763-3.033-4.626-8.824-3.054-12.319s5.291-1.159,6.218-.026c.618.755,8.287-16.823,8.287-16.823l27.28,11.7s-3.353,16.711-8.987,25.724c-5.656,9.051-11.238,9.358-18.32,6.247a18.081,18.081,0,0,1-7.433-5.759Z" transform="translate(-77.874 -17.596)"/>
      <path id="Path_460" data-name="Path 460" class="cls-10" d="M601.3,907.426a18.835,18.835,0,0,1-7.49-1.843,19.179,19.179,0,0,1-7.818-6.065.963.963,0,1,1,1.545-1.152,17.278,17.278,0,0,0,7.048,5.452c6.511,2.861,11.645,2.877,17.115-5.875,4.8-7.676,7.965-21.282,8.7-24.64l-25.673-11.012c-7.155,16.339-7.986,16.453-8.6,16.538l-.535.074-.4-.441a4.367,4.367,0,0,0-3.175-1.451,1.859,1.859,0,0,0-1.42,1.262c-1.009,2.243.087,6.413,3.008,11.44a.963.963,0,0,1-1.666.968c-2.324-4-4.748-9.535-3.1-13.2a3.69,3.69,0,0,1,2.924-2.382,5.912,5.912,0,0,1,4.12,1.378c1.3-2.19,4.6-9.294,7.456-15.835l.383-.878L622.6,872.154l-.154.766c-.138.69-3.453,16.987-9.114,26.045C609.75,904.695,606,907.426,601.3,907.426Z" transform="translate(-77.337 -16.892)"/>
      <path id="Path_461" data-name="Path 461" class="cls-10" d="M624.267,871.853s-25.291-5.086-35.8,4.285a7.481,7.481,0,0,0-2.3-1.866,3.6,3.6,0,0,0-2.175-.35L595.233,855Z" transform="translate(-79.374 -15.186)"/>
      <path id="Path_462" data-name="Path 462" class="cls-9" d="M680.249,1058.052c-5.943-.511-31.4,2.932-31.4,2.932l2.147-13.755s27.777,4.727,29.877,4.123a62.462,62.462,0,0,1,13.836-2.005c6.167-.241,12.612,3.56,12.52,5.236-.05.9-8.9-.776-11.03.078C690.185,1057.073,684.484,1058.416,680.249,1058.052Z" transform="translate(-102.574 -83.955)"/>
      <path id="Path_463" data-name="Path 463" class="cls-10" d="M647.052,1061.492l2.5-15.995.963.164c10.5,1.786,27.775,4.493,29.464,4.143a63.426,63.426,0,0,1,14.048-2.038c5.477-.209,10.738,2.451,12.576,4.318a2.657,2.657,0,0,1,.943,1.935,1.107,1.107,0,0,1-.384.776c-.589.514-1.567.5-5.164.206-2.193-.176-5.2-.419-6.084-.064-6.533,2.621-12.2,3.818-16.386,3.455-5.768-.49-30.939,2.893-31.193,2.928Zm4.1-13.768-1.8,11.516c5.3-.7,25.062-3.223,30.336-2.767h0c3.834.326,9.339-.851,15.5-3.325,1.216-.487,3.545-.343,6.956-.068.963.078,2.161.174,2.994.195a17.592,17.592,0,0,0-11.044-3.585,61.443,61.443,0,0,0-13.607,1.969C678.441,1052.252,658.638,1048.99,651.152,1047.724Z" transform="translate(-101.933 -83.335)"/>
      <path id="Path_464" data-name="Path 464" class="cls-6" d="M524.439,937.882c-5.747-2.964-43.74,38.151-52.242,55.107-17.4,34.692,30.643,26.657,30.643,26.657l-6.508-41.357,3.283,60.318,51,3.38,12-55.33s1.4,33.124,19.84,33.124h26.7l1.613-15.093-26.117-3.017s-4.409-34.61-15.563-46.163c-5.264-5.452-9.6-8.662-11.867-9.216C550.376,944.627,553.625,952.937,524.439,937.882Z" transform="translate(-38.023 -44.783)"/>
      <path id="Path_465" data-name="Path 465" class="cls-15" d="M527.953,943.391s-8.147,2.92-7.407,5.332c9.3,30.278,2.3,31.189-8.67,50.323-16.362,28.529-5.912,23.2-5.912,23.2L548,1030.868l5.225-47.677S538.205,949.951,527.953,943.391Z" transform="translate(-50.285 -46.808)"/>
      <path id="Path_466" data-name="Path 466" class="cls-15" d="M603.157,955.706,578.632,986.93l-5.64,49.354h21.621l5.533-44.75s5.074-25.316,9.484-30.91C610.365,959.692,603.157,955.706,603.157,955.706Z" transform="translate(-75.439 -51.213)"/>
      <path id="Path_467" data-name="Path 467" class="cls-10" d="M568.807,1045.157a.868.868,0,0,1-.83-1.125c5.823-18.815,10.263-95.059,10.308-95.826a.869.869,0,1,1,1.734.1c-.181,3.144-4.5,77.223-10.382,96.24A.869.869,0,0,1,568.807,1045.157Z" transform="translate(-73.631 -48.237)"/>
      <path id="Path_468" data-name="Path 468" class="cls-10" d="M629.749,903.46a1.607,1.607,0,0,1-1.521-2.123l.313-.92a1.606,1.606,0,0,1,3.041,1.034l-.313.92A1.607,1.607,0,0,1,629.749,903.46Z" transform="translate(-95.168 -31.045)"/>
      <path id="Path_469" data-name="Path 469" class="cls-10" d="M608.563,896.5a1.607,1.607,0,0,1-1.52-2.123l.313-.92a1.605,1.605,0,1,1,3.04,1.033l-.313.92A1.606,1.606,0,0,1,608.563,896.5Z" transform="translate(-87.59 -28.554)"/>
      <path id="Path_470" data-name="Path 470" class="cls-10" d="M614.295,888.491a.963.963,0,0,1-.723-.326,7.52,7.52,0,0,0-7.231-1.81.963.963,0,0,1-.417-1.881,9.411,9.411,0,0,1,9.1,2.421.963.963,0,0,1-.726,1.6Z" transform="translate(-86.95 -25.631)"/>
      <path id="Path_471" data-name="Path 471" class="cls-10" d="M621.353,905.282a12.565,12.565,0,0,1-3.552-.7.963.963,0,0,1,.573-1.839,14.8,14.8,0,0,0,2.855.619c-.022-.116-.047-.242-.071-.356a17.567,17.567,0,0,1-.281-5.806c.269-2.682.884-4.275,1.935-5.014a2.838,2.838,0,0,1,2.38-.327,13.674,13.674,0,0,1,5.978,3.8.964.964,0,0,1-1.437,1.284,11.869,11.869,0,0,0-5.01-3.214c-.461-.116-.654-.07-.8.035-.246.173-.85.874-1.125,3.629a15.593,15.593,0,0,0,.251,5.227,2.421,2.421,0,0,1-.154,2.09C622.746,904.9,622.456,905.282,621.353,905.282Z" transform="translate(-91.227 -28.327)"/>
      <path id="Path_472" data-name="Path 472" class="cls-9" d="M597.352,1055.575c-5.942-.51-31.4,2.932-31.4,2.932l2.147-13.754s27.777,4.727,29.877,4.123a62.442,62.442,0,0,1,13.836-2.005c6.166-.241,12.612,3.56,12.519,5.236-.05.9-8.9-.777-11.03.078C607.289,1054.6,601.587,1055.939,597.352,1055.575Z" transform="translate(-72.919 -83.068)"/>
      <path id="Path_473" data-name="Path 473" class="cls-10" d="M564.155,1059.015l2.5-15.995.963.163c10.5,1.787,27.776,4.49,29.465,4.143a63.391,63.391,0,0,1,14.048-2.039c5.473-.212,10.738,2.45,12.576,4.318a2.658,2.658,0,0,1,.943,1.934,1.108,1.108,0,0,1-.384.777c-.589.515-1.568.5-5.165.206-2.194-.176-5.2-.42-6.083-.064-6.532,2.62-12.2,3.817-16.386,3.456h0c-5.768-.487-30.94,2.892-31.193,2.926Zm4.1-13.769-1.8,11.516c5.3-.7,25.059-3.223,30.337-2.766,3.833.323,9.34-.852,15.5-3.325,1.215-.487,3.543-.344,6.956-.068.964.078,2.161.175,2.995.2a17.633,17.633,0,0,0-11.044-3.585,61.434,61.434,0,0,0-13.606,1.969C595.551,1049.778,575.743,1046.513,568.255,1045.246Z" transform="translate(-72.278 -82.448)"/>
      <path id="Path_474" data-name="Path 474" class="cls-6" d="M496.772,1027.534l47.4,8.489-5.521,16.324s-32.831.95-39.86,0c-13.084-1.767-27.071-13.293-27.071-13.293Z" transform="translate(-39.212 -76.908)"/>
      <path id="Path_475" data-name="Path 475" class="cls-13" d="M769.286,923.623l-14.937,64.418H667.117l17.66-64.418Z" transform="translate(-109.111 -39.736)"/>
      <path id="Path_476" data-name="Path 476" class="cls-14" d="M754.411,988.468H665.15l18.189-66.345h86.455Zm-86.734-1.927h85.2l14.49-62.491H684.808Z" transform="translate(-108.407 -39.199)"/>
      <rect id="Rectangle_31" data-name="Rectangle 31" class="cls-6" width="38.087" height="4.847" transform="translate(576.185 975) rotate(180)"/>
      <path id="Path_477" data-name="Path 477" class="cls-14" d="M674.634,1063.212H634.621v-6.773h40.013Zm-38.086-1.927h36.16v-2.919h-36.16Z" transform="translate(-97.486 -87.249)"/>
      <rect id="Rectangle_32" data-name="Rectangle 32" class="cls-6" width="38.086" height="4.847" transform="translate(586.316 970.153)"/>
      <path id="Path_478" data-name="Path 478" class="cls-14" d="M749.709,1063.212H709.7v-6.773h40.014Zm-38.087-1.927h36.16v-2.919h-36.16Z" transform="translate(-124.342 -87.249)"/>
      <path id="Path_479" data-name="Path 479" class="cls-15" d="M738.4,972.835c-.341,3.973,2.006,7.418,5.241,7.7s6.135-2.718,6.475-6.69-2.006-7.418-5.241-7.7S738.739,968.862,738.4,972.835Z" transform="translate(-134.599 -54.941)"/>
      <path id="Path_480" data-name="Path 480" class="cls-10" d="M554.336,1041.62a.9.9,0,0,1-.851-1.186l4.89-14.456-43.629-6.918,12.578-21.183a.9.9,0,1,1,1.545.917L517.642,1017.7l43.116,6.837-5.572,16.473A.9.9,0,0,1,554.336,1041.62Z" transform="translate(-54.602 -66.142)"/>
      <path id="Path_481" data-name="Path 481" class="cls-6" d="M546.432,937.362l9.49-4.716,15.536,10.336-6.752,5.375Z" transform="translate(-65.938 -42.964)"/>
      <path id="Path_482" data-name="Path 482" class="cls-6" d="M604.059,951.005l-4.48-7.217-14.181,3.18,3.682,6.974Z" transform="translate(-79.877 -46.95)"/>
      <path id="Path_483" data-name="Path 483" class="cls-14" d="M590.558,947.078l-5.577-8.985-14.447,3.241-15.657-10.417-11.563,5.745,20.354,12.247,6.366-5.067,3.473,6.579Zm-27.044-.509-16.2-9.745,7.418-3.685,13.972,9.3Zm20.552-6.3,3.383,5.45-12.908,2.531-2.759-5.227Z" transform="translate(-64.822 -42.345)"/>
      <path id="Path_484" data-name="Path 484" class="cls-11" d="M608.04,912.771s4.086,8.053,9.585,3.276a4.049,4.049,0,0,0-3.611-1.441A10.634,10.634,0,0,0,608.04,912.771Z" transform="translate(-87.977 -35.854)"/>
      <path id="Path_502" data-name="Path 502" class="cls-13" d="M0,0H308.932V262.18H0Z" transform="translate(406.581 975.372)"/>
      <path id="Path_503" data-name="Path 503" class="cls-6" d="M0,0H67.449V262.18H0Z" transform="translate(709.581 975.372)"/>
      <path id="Path_485" data-name="Path 485" class="cls-14" d="M801.263,1328.67H429.85V1064.564H801.263Zm-369.486-1.927H799.336V1066.491H431.777Z" transform="translate(-24.232 -90.155)"/>
      <rect id="Rectangle_34" data-name="Rectangle 34" class="cls-6" width="118.237" height="22.474" transform="translate(659.31 952.523)"/>
      <path id="Path_486" data-name="Path 486" class="cls-10" d="M943.51,1053.389H823.346v-24.4H943.51Zm-118.237-1.927h116.31v-20.547H825.273Z" transform="translate(-164.999 -77.429)"/>
      <rect id="Rectangle_35" data-name="Rectangle 35" class="cls-13" width="70.884" height="63.531" transform="translate(674.016 888.787)"/>
      <path id="Path_487" data-name="Path 487" class="cls-14" d="M846.243,929.752v65.457h72.811V929.752Zm1.927,1.927h14.642v61.6H848.17Zm68.957,61.6H864.739v-61.6h52.388Z" transform="translate(-173.19 -41.929)"/>
      <rect id="Rectangle_36" data-name="Rectangle 36" class="cls-10" width="9.216" height="24.706" transform="translate(717.448 888.787)"/>
      <rect id="Rectangle_37" data-name="Rectangle 37" class="cls-6" width="10.016" height="21.848" transform="translate(599.642 948.305)"/>
      <path id="Path_488" data-name="Path 488" class="cls-14" d="M742.387,1046.2H730.444v-23.775h11.943Zm-10.016-1.927h8.089v-19.922h-8.089Z" transform="translate(-131.765 -75.079)"/>
      <g id="Group_314" data-name="Group 314" transform="translate(362.112 1082.535)">
        <rect id="Rectangle_38" data-name="Rectangle 38" class="cls-6" width="112.551" height="154.054" transform="translate(0.963 0.963)"/>
        <path id="Path_489" data-name="Path 489" class="cls-14" d="M476.589,1388.9H362.112v-155.98H476.589Zm-112.551-1.927H474.663V1234.842H364.039Z" transform="translate(-362.112 -1232.915)"/>
        <rect id="Rectangle_39" data-name="Rectangle 39" class="cls-6" width="104.315" height="113.646" transform="translate(193.177 41.371)"/>
        <path id="Path_490" data-name="Path 490" class="cls-14" d="M767.628,1411.4H661.386V1295.829H767.628Zm-104.315-1.927H765.7V1297.756H663.313Z" transform="translate(-469.173 -1255.421)"/>
        <rect id="Rectangle_40" data-name="Rectangle 40" class="cls-13" width="144.709" height="75.008" transform="translate(65.723 80.009)"/>
        <rect id="Rectangle_41" data-name="Rectangle 41" class="cls-10" width="16.981" height="32.397" transform="translate(167.568 79.635)"/>
        <path id="Path_491" data-name="Path 491" class="cls-14" d="M462.942,1355.988v76.935H609.578v-76.935Zm1.927,1.927H506.08V1431H464.869ZM607.651,1431H508.007v-73.081h99.644Z" transform="translate(-398.182 -1276.943)"/>
        <rect id="Rectangle_44" data-name="Rectangle 44" class="cls-13" width="103.923" height="53.334" transform="translate(93.567 26.3)"/>
        <path id="Path_493" data-name="Path 493" class="cls-14" d="M506.294,1272.365v55.261H612.145v-55.261Zm103.924,19.216H541.359v-17.289h68.859Zm-70.785-17.289v17.289H508.221v-17.289Zm-31.212,19.216h31.212V1325.7H508.221Zm33.138,32.191v-32.191h68.859V1325.7Z" transform="translate(-413.691 -1247.028)"/>
        <path id="Path_497" data-name="Path 497" class="cls-9" d="M792.028,1322.806a7.421,7.421,0,1,1-7.421-7.421A7.42,7.42,0,0,1,792.028,1322.806Z" transform="translate(-510.598 -1262.417)"/>
        <path id="Path_498" data-name="Path 498" class="cls-10" d="M784.07,1330.654a8.384,8.384,0,1,1,8.384-8.384A8.393,8.393,0,0,1,784.07,1330.654Zm0-14.841a6.457,6.457,0,1,0,6.457,6.457A6.464,6.464,0,0,0,784.07,1315.813Z" transform="translate(-510.062 -1261.881)"/>
        <path id="Path_499" data-name="Path 499" class="cls-9" d="M399.8,1304.88a7.421,7.421,0,1,1-7.421-7.421A7.42,7.42,0,0,1,399.8,1304.88Z" transform="translate(-370.285 -1256.005)"/>
        <path id="Path_500" data-name="Path 500" class="cls-10" d="M391.843,1312.727a8.384,8.384,0,1,1,8.384-8.384A8.393,8.393,0,0,1,391.843,1312.727Zm0-14.842a6.457,6.457,0,1,0,6.457,6.458A6.465,6.465,0,0,0,391.843,1297.886Z" transform="translate(-369.749 -1255.468)"/>
        <rect id="Rectangle_47" data-name="Rectangle 47" class="cls-10" width="11.392" height="13.454" transform="translate(268.495 84.255)"/>
        <rect id="Rectangle_48" data-name="Rectangle 48" class="cls-10" width="11.392" height="13.454" transform="translate(16.399 14.347)"/>
        <rect id="Rectangle_49" data-name="Rectangle 49" class="cls-10" width="11.392" height="13.454" transform="translate(38.876 16.826)"/>
      </g>
    </g>
    <path id="diagram_1_" data-name="diagram (1)" class="cls-15" d="M39.369,5.9H32.017V0H17.508V6.654L12.73,1.876,10.678,3.928,12.651,5.9H1.451V8.8H12.513L10.667,10.69l2.074,2.029,4.767-4.872v6.76H32.017V8.8h7.351a7.255,7.255,0,0,1,0,14.509h-2.4l1.876-1.876L36.8,19.384l-4.778,4.777V17.508H17.508v5.8H10.253a10.157,10.157,0,1,0,0,20.313h2.3L10.678,45.5l2.052,2.052,4.778-4.777v6.75H32.017V34.919H17.508v6.654L12.73,36.8l-2.052,2.052,1.876,1.876h-2.3a7.255,7.255,0,1,1,0-14.509h7.255v5.8H32.017V25.364L36.8,30.141l2.052-2.052-1.876-1.876h2.4a10.157,10.157,0,1,0,0-20.313ZM29.115,11.7H20.41V2.9h8.706ZM20.41,37.821h8.706v8.8H20.41Zm8.706-8.706H20.41V20.41h8.706Zm0,0" transform="translate(971.237 1271)"/>
    <text id="Catalog_with_Contracted_prices" data-name="Catalog with
Contracted prices" class="cls-16" transform="translate(861 1382)"><tspan x="-51.496" y="0">Catalog with</tspan><tspan x="-73.144" y="18">Contracted prices</tspan></text>
    <text id="Order_management" data-name="Order
management" class="cls-16" transform="translate(1130 1382)"><tspan x="-23.08" y="0">Order</tspan><tspan x="-56.264" y="18">management</tspan></text>
    <text id="Workflow_approval" data-name="Workflow
approval" class="cls-16" transform="translate(967 1382)"><tspan x="0" y="0">Workflow</tspan><tspan x="0" y="18">approval</tspan></text>
    <text id="Supplier_portal" data-name="Supplier portal" class="cls-16" transform="translate(1269 1382)"><tspan x="-58.872" y="0">Supplier portal</tspan></text>
    <text id="Deliver_goods" data-name="Deliver goods" class="cls-16" transform="translate(867 1563)"><tspan x="-54.816" y="0">Deliver goods</tspan></text>
    <text id="Receive_goods" data-name="Receive
goods" class="cls-16" transform="translate(1004 1561)"><tspan x="-31.384" y="0">Receive</tspan><tspan x="-25.296" y="18">goods</tspan></text>
    <text id="Invoice_processing" data-name="Invoice
processing" class="cls-16" transform="translate(1134 1561)"><tspan x="-29.024" y="0">Invoice</tspan><tspan x="-44.744" y="18">processing</tspan></text>
    <text id="Consumption_cost_analytics" data-name="Consumption &amp;
cost analytics" class="cls-16" transform="translate(1279 1561)"><tspan x="-62.328" y="0">Consumption &amp;</tspan><tspan x="-56.24" y="18">cost analytics</tspan></text>
    <g id="check-list" transform="translate(841 1273)">
      <g id="Group_317" data-name="Group 317">
        <g id="Group_316" data-name="Group 316">
          <path id="Path_504" data-name="Path 504" class="cls-15" d="M18.4,10.733a7.667,7.667,0,1,1-7.667-7.667V0A10.733,10.733,0,1,0,21.467,10.733Z"/>
        </g>
      </g>
      <g id="Group_319" data-name="Group 319" transform="translate(24.533)">
        <g id="Group_318" data-name="Group 318">
          <path id="Path_505" data-name="Path 505" class="cls-15" d="M283.8,0a10.733,10.733,0,1,0,10.733,10.733A10.746,10.746,0,0,0,283.8,0Zm0,18.4a7.667,7.667,0,1,1,7.667-7.667A7.675,7.675,0,0,1,283.8,18.4Z" transform="translate(-273.066 0)"/>
        </g>
      </g>
      <g id="Group_321" data-name="Group 321" transform="translate(0 24.533)">
        <g id="Group_320" data-name="Group 320">
          <path id="Path_506" data-name="Path 506" class="cls-15" d="M18.4,283.8a7.667,7.667,0,1,1-7.667-7.667v-3.067A10.733,10.733,0,1,0,21.467,283.8Z" transform="translate(0 -273.067)"/>
        </g>
      </g>
      <g id="Group_323" data-name="Group 323" transform="translate(24.533 24.533)">
        <g id="Group_322" data-name="Group 322">
          <path id="Path_507" data-name="Path 507" class="cls-15" d="M283.8,273.067A10.733,10.733,0,1,0,294.533,283.8,10.746,10.746,0,0,0,283.8,273.067Zm0,18.4a7.667,7.667,0,1,1,7.667-7.667A7.675,7.675,0,0,1,283.8,291.467Z" transform="translate(-273.066 -273.067)"/>
        </g>
      </g>
      <g id="Group_325" data-name="Group 325" transform="translate(6.583 1.983)">
        <g id="Group_324" data-name="Group 324">
          <path id="Path_508" data-name="Path 508" class="cls-15" d="M85.534,22.067l-8.116,8.116L75.435,28.2l-2.168,2.168,3.067,3.067a1.532,1.532,0,0,0,2.168,0l9.2-9.2Z" transform="translate(-73.267 -22.067)"/>
        </g>
      </g>
      <g id="Group_327" data-name="Group 327" transform="translate(6.583 26.516)">
        <g id="Group_326" data-name="Group 326">
          <path id="Path_509" data-name="Path 509" class="cls-15" d="M85.535,295.134l-8.116,8.116-1.983-1.983-2.168,2.168,3.067,3.067a1.532,1.532,0,0,0,2.168,0l9.2-9.2Z" transform="translate(-73.268 -295.134)"/>
        </g>
      </g>
    </g>
    <g id="validation" transform="translate(1109.399 1271)">
      <path id="Path_510" data-name="Path 510" class="cls-15" d="M81.44,339.28l-2.045,2.045,3.915,3.915,6.807-6.808-2.045-2.045-4.762,4.762Zm0,0" transform="translate(-71.74 -303.954)"/>
      <path id="Path_511" data-name="Path 511" class="cls-15" d="M0,36.348a13.016,13.016,0,1,0,26.032,0c0-.364-.017-.726-.046-1.087q.307.087.613.159c2.644.61,5.427.327,7.36-1.606l4.09-4.09c2.5-2.5,2.5-6.894.085-11.2l8.7-6.794a6.553,6.553,0,1,0-9.194-9.2l-6.8,8.7c-4.31-2.413-8.7-2.418-11.2.085L15.55,15.406c-1.731,1.731-2.3,4.345-1.606,7.359.047.2.1.409.159.613-.361-.03-.723-.047-1.087-.047A13.031,13.031,0,0,0,0,36.348ZM39.922,4.305a3.661,3.661,0,1,1,5.135,5.139L31.464,20.057A2.652,2.652,0,0,1,29.307,17.9ZM29.04,13.542l-2.718,3.412v.5a5.637,5.637,0,0,0,5.591,5.591h.5l3.412-2.719c1.546,2.982,1.656,5.878.181,7.354a4.008,4.008,0,0,1-2.92,1.054c-2.488,0-5.7-1.493-8.329-4.122a14.171,14.171,0,0,1-3.9-6.585c-.463-2.007-.168-3.664.833-4.664C23.162,11.885,26.058,12,29.04,13.542ZM17.8,17.249a16.117,16.117,0,0,0,4.912,9.406,16.293,16.293,0,0,0,9.406,4.911c-.121.064-1.307,1.856-4.866,1.035a14.17,14.17,0,0,1-6.585-3.9,14.173,14.173,0,0,1-3.9-6.585C15.939,18.545,17.735,17.369,17.8,17.249Zm.821,13.5a19.014,19.014,0,0,0,4.236,3.211,10.121,10.121,0,1,1-7.446-7.446A19.01,19.01,0,0,0,18.618,30.745Zm0,0" transform="translate(0 0)"/>
    </g>
    <g id="check-list_1_" data-name="check-list (1)" transform="translate(1245.183 1275)">
      <path id="Path_512" data-name="Path 512" class="cls-15" d="M48.251,20.87H44.111V19.014a4.889,4.889,0,0,0-3.727-4.723V1.242A1.242,1.242,0,0,0,39.142,0H9.742A1.242,1.242,0,0,0,8.5,1.242V35.279a1.242,1.242,0,0,0,1.242,1.242h19.13v1.018a4.871,4.871,0,0,0,4.87,4.862H44.624a4.871,4.871,0,0,0,4.87-4.862V22.112a1.242,1.242,0,0,0-1.242-1.242Zm-6.625-1.855V20.87H36.74V19.014a2.444,2.444,0,0,1,4.886,0ZM10.984,34.037V2.484H37.9V14.313a4.887,4.887,0,0,0-3.644,4.7v1.855H30.115a1.242,1.242,0,0,0-1.242,1.242V34.037Zm36.025,3.5a2.384,2.384,0,0,1-2.385,2.377H33.742a2.384,2.384,0,0,1-2.385-2.377V23.354h2.9v3.271a1.242,1.242,0,1,0,2.484,0V23.354h4.886v3.271a1.242,1.242,0,0,0,2.484,0V23.354h2.9Z"/>
      <path id="Path_513" data-name="Path 513" class="cls-15" d="M72.216,60.4,70.8,61.913,70.71,61.8a1.242,1.242,0,0,0-1.937,1.556l.994,1.237a1.242,1.242,0,0,0,.923.463h.045a1.243,1.243,0,0,0,.909-.4l2.39-2.567A1.242,1.242,0,0,0,72.216,60.4Z" transform="translate(-55.03 -55.031)"/>
      <path id="Path_514" data-name="Path 514" class="cls-15" d="M170.742,77.984h11.1a1.242,1.242,0,0,0,0-2.484h-11.1a1.242,1.242,0,0,0,0,2.484Z" transform="translate(-147.667 -69.247)"/>
      <path id="Path_515" data-name="Path 515" class="cls-15" d="M72.216,151.4,70.8,152.913l-.094-.118a1.242,1.242,0,0,0-1.937,1.556l.994,1.237a1.242,1.242,0,0,0,.923.463h.045a1.243,1.243,0,0,0,.909-.4l2.39-2.567a1.242,1.242,0,0,0-1.818-1.693Z" transform="translate(-55.03 -138.495)"/>
      <path id="Path_516" data-name="Path 516" class="cls-15" d="M170.742,168.984H177.7a1.242,1.242,0,0,0,0-2.484h-6.956a1.242,1.242,0,1,0,0,2.484Z" transform="translate(-147.667 -152.711)"/>
      <path id="Path_517" data-name="Path 517" class="cls-15" d="M72.216,242.4,70.8,243.913l-.094-.118a1.242,1.242,0,0,0-1.937,1.556l.994,1.237a1.242,1.242,0,0,0,.923.463h.045a1.243,1.243,0,0,0,.909-.4l2.39-2.567a1.242,1.242,0,0,0-1.818-1.693Z" transform="translate(-55.03 -221.959)"/>
      <path id="Path_518" data-name="Path 518" class="cls-15" d="M172.812,257.5h-2.07a1.242,1.242,0,0,0,0,2.484h2.07a1.242,1.242,0,0,0,0-2.484Z" transform="translate(-147.667 -236.175)"/>
    </g>
    <g id="tracking" transform="translate(849 1414)">
      <path id="Path_519" data-name="Path 519" class="cls-15" d="M43.171,63.038a10.049,10.049,0,0,0-8.041-2.9V50.054A4.058,4.058,0,0,0,31.076,46H3.994A4.059,4.059,0,0,0,0,50.054V77.078a4.058,4.058,0,0,0,4.053,4.054c28.025-.093,27.183.222,28.469-.268L35.1,83.438a1.351,1.351,0,0,0,1.911,0l6.163-6.163a10.062,10.062,0,0,0,0-14.237ZM14.953,48.7h5.4v6.756h-5.4ZM4.053,78.429A1.353,1.353,0,0,1,2.7,77.078V50.054A1.353,1.353,0,0,1,4.053,48.7h8.2V56.81A1.351,1.351,0,0,0,13.6,58.161h8.107A1.351,1.351,0,0,0,23.06,56.81V48.7h8.017a1.353,1.353,0,0,1,1.351,1.351V60.765a10.066,10.066,0,0,0-3.493,16.51l1.154,1.154ZM41.26,75.364l-5.207,5.208-5.207-5.208a7.365,7.365,0,1,1,10.415,0Z"/>
      <path id="Path_520" data-name="Path 520" class="cls-15" d="M357.232,266.7a4.306,4.306,0,1,0,4.306,4.306A4.311,4.311,0,0,0,357.232,266.7Zm0,5.909a1.6,1.6,0,1,1,1.6-1.6A1.605,1.605,0,0,1,357.232,272.609Z" transform="translate(-321.134 -200.819)"/>
      <path id="Path_521" data-name="Path 521" class="cls-15" d="M70.414,286H62.3a1.351,1.351,0,0,0,0,2.7h8.116a1.351,1.351,0,0,0,0-2.7Z" transform="translate(-55.457 -218.381)"/>
      <path id="Path_522" data-name="Path 522" class="cls-15" d="M70.405,346H62.3a1.351,1.351,0,0,0,0,2.7h8.107a1.351,1.351,0,0,0,0-2.7Z" transform="translate(-55.457 -272.976)"/>
    </g>
    <path id="Path_523" data-name="Path 523" class="cls-17" d="M762.641,1599.167v17.081h568.344V1592.26" transform="translate(35.015 -8)"/>
    <text id="SAVEMORE" class="cls-18" transform="translate(949 1644)"><tspan x="0" y="0">SAVE</tspan><tspan class="cls-19" y="0">MORE</tspan></text>
    <text id="Does_it_all_for_you_" data-name="Does it all for you!" class="cls-20" transform="translate(1084 1643)"><tspan x="0" y="0">Does it all for you!</tspan></text>
    <g id="payment" transform="translate(1092.276 1457.167)">
      <path id="Path_1770" data-name="Path 1770" class="cls-21" d="M63.9,16.366A1.162,1.162,0,0,0,65.062,15.2V5.851A5.858,5.858,0,0,0,59.208,0H35.86a5.816,5.816,0,0,0-5.809,5.809V38.484a1.164,1.164,0,0,0,2,.8l1.487-1.553,1.571,1.571a1.162,1.162,0,0,0,1.643,0l1.488-1.488,1.5,1.491a1.162,1.162,0,0,0,1.637,0L42.909,37.8l1.528,1.514a1.162,1.162,0,0,0,1.636,0l1.957-1.937A10.457,10.457,0,1,0,55.684,18.81V16.366ZM62.738,5.851v8.191H55.684V5.851a3.527,3.527,0,1,1,7.054,0Zm-17.482,31-1.529-1.515a1.162,1.162,0,0,0-1.636,0l-1.527,1.514-1.507-1.494a1.162,1.162,0,0,0-1.64,0l-1.485,1.484-1.589-1.589a1.161,1.161,0,0,0-1.661.018l-.307.32V5.809A3.489,3.489,0,0,1,35.86,2.324H54.546a5.82,5.82,0,0,0-1.186,3.527V18.818A10.468,10.468,0,0,0,46.386,35.73Zm17.437-7.641a8.135,8.135,0,1,1-8.135-8.135A8.144,8.144,0,0,1,62.692,29.208Z" transform="translate(0 0)"/>
      <path id="Path_1771" data-name="Path 1771" class="cls-21" d="M294.514,321.524V323.9h-2.352a1.162,1.162,0,1,0,0,2.324h3.514a1.162,1.162,0,0,0,1.162-1.162v-3.536a1.162,1.162,0,0,0-2.324,0Z" transform="translate(-240.732 -295.542)"/>
      <path id="Path_1772" data-name="Path 1772" class="cls-21" d="M157.3,66.6c-1.112-.866-2.563-1-2.887-1.586a.6.6,0,0,1,.256-.713,1.389,1.389,0,0,1,1.374.1,1.162,1.162,0,1,0,1.576-1.708,3.211,3.211,0,0,0-1.314-.709v-.1a1.162,1.162,0,1,0-2.324,0v.174a2.921,2.921,0,0,0-1.6,4.079,4.182,4.182,0,0,0,2.376,1.743c.637.251,1.575.6,1.5,1.292a1.094,1.094,0,0,1-.624.819A2.486,2.486,0,0,1,153.6,69.7a1.162,1.162,0,1,0-1.272,1.945,4.961,4.961,0,0,0,1.648.666v.148a1.162,1.162,0,1,0,2.324,0v-.237A3.211,3.211,0,0,0,157.3,66.6Z" transform="translate(-112.32 -56.017)"/>
      <path id="Path_1773" data-name="Path 1773" class="cls-21" d="M97.972,256.08H92.161a1.162,1.162,0,1,0,0,2.324h5.811a1.162,1.162,0,1,0,0-2.324Z" transform="translate(-56.226 -236.24)"/>
      <path id="Path_1774" data-name="Path 1774" class="cls-21" d="M97.926,316.18H92.111a1.162,1.162,0,1,0,0,2.324h5.815a1.162,1.162,0,1,0,0-2.324Z" transform="translate(-56.18 -291.684)"/>
      <path id="Path_1775" data-name="Path 1775" class="cls-21" d="M97.88,376.08H92.061a1.162,1.162,0,0,0,0,2.324H97.88a1.162,1.162,0,1,0,0-2.324Z" transform="translate(-56.134 -346.943)"/>
    </g>
    <g id="receive_1_" data-name="receive (1)" transform="translate(976.995 1179.087)">
      <path id="Path_1778" data-name="Path 1778" class="cls-15" d="M45.3,309.6a7.442,7.442,0,0,0-5.625-1.109l-7.716,1.62a4.613,4.613,0,0,0-2.806-5.255L20.9,301.591a14.8,14.8,0,0,0-10.291-.222L0,305.087v14.178l12.142-4.074,14.777,5.556,21.949-4.525-.372-1.855A7.442,7.442,0,0,0,45.3,309.6ZM27.152,317.77,12.2,312.147l-9.329,3.13v-8.156l8.682-3.043a11.93,11.93,0,0,1,8.291.18l8.262,3.27a1.829,1.829,0,0,1,.028,3.322,1.635,1.635,0,0,1-1.29.042l-10-3.919-1.046,2.67,10,3.919a4.466,4.466,0,0,0,2.46.236l0,.023,11.986-2.517a4.627,4.627,0,0,1,5.151,2.7Z" transform="translate(0)"/>
    </g>
    <g id="Rectangle_519" data-name="Rectangle 519" class="cls-22" transform="translate(999 1460)">
      <rect class="cls-24" width="20" height="18" rx="2"/>
      <rect class="cls-25" x="1" y="1" width="18" height="16" rx="1"/>
    </g>
    <g id="Rectangle_520" data-name="Rectangle 520" class="cls-23" transform="translate(1000 1466)">
      <rect class="cls-24" width="18" height="4"/>
      <rect class="cls-25" x="0.5" y="0.5" width="17" height="3"/>
    </g>
    <g id="line-chart_1_" data-name="line-chart (1)" transform="translate(1252.979 1412.167)">
      <g id="Group_926" data-name="Group 926" transform="translate(0 51)">
        <g id="Group_925" data-name="Group 925">
          <path id="Path_1779" data-name="Path 1779" class="cls-15" d="M40.81,51H1.232A1.232,1.232,0,0,0,0,52.232v31.2a1.232,1.232,0,0,0,1.232,1.232H40.81a1.232,1.232,0,0,0,1.232-1.232v-31.2A1.232,1.232,0,0,0,40.81,51ZM39.578,82.2H2.463V60.853H39.578Zm0-23.813H2.463V53.463H39.578Z" transform="translate(0 -51)"/>
        </g>
      </g>
      <g id="Group_928" data-name="Group 928" transform="translate(25.845 54.695)">
        <g id="Group_927" data-name="Group 927">
          <path id="Path_1780" data-name="Path 1780" class="cls-15" d="M320.26,96h-4.27a1.232,1.232,0,1,0,0,2.463h4.27a1.232,1.232,0,1,0,0-2.463Z" transform="translate(-314.758 -96)"/>
        </g>
      </g>
      <g id="Group_930" data-name="Group 930" transform="translate(34.139 54.284)">
        <g id="Group_929" data-name="Group 929">
          <circle id="Ellipse_88" data-name="Ellipse 88" class="cls-15" cx="1.642" cy="1.642" r="1.642"/>
        </g>
      </g>
      <g id="Group_932" data-name="Group 932" transform="translate(8.412 64.879)">
        <g id="Group_931" data-name="Group 931">
          <path id="Path_1781" data-name="Path 1781" class="cls-15" d="M127.394,220.488a1.232,1.232,0,0,0-1.73-.2l-10.032,7.91-6.9-3.106a1.232,1.232,0,0,0-1.479.369l-4.551,5.876a1.232,1.232,0,1,0,1.947,1.508l3.957-5.108,6.7,3.014a1.232,1.232,0,0,0,1.268-.156l10.619-8.372A1.232,1.232,0,0,0,127.394,220.488Z" transform="translate(-102.44 -220.019)"/>
        </g>
      </g>
    </g>
  </g>
</svg>
