<svg xmlns="http://www.w3.org/2000/svg" width="35.261" height="39.974" viewBox="0 0 35.261 39.974">
  <defs>
    <style>
      .cls-1 {
        fill: #495872;
        stroke: #495872;
        stroke-width: 0.25px;
      }
    </style>
  </defs>
  <g id="payment" transform="translate(-29.926 0.125)">
    <path id="Path_1770" data-name="Path 1770" class="cls-1" d="M63.9,16.366A1.162,1.162,0,0,0,65.062,15.2V5.851A5.858,5.858,0,0,0,59.208,0H35.86a5.816,5.816,0,0,0-5.809,5.809V38.484a1.164,1.164,0,0,0,2,.8l1.487-1.553,1.571,1.571a1.162,1.162,0,0,0,1.643,0l1.488-1.488,1.5,1.491a1.162,1.162,0,0,0,1.637,0L42.909,37.8l1.528,1.514a1.162,1.162,0,0,0,1.636,0l1.957-1.937A10.457,10.457,0,1,0,55.684,18.81V16.366ZM62.738,5.851v8.191H55.684V5.851a3.527,3.527,0,1,1,7.054,0Zm-17.482,31-1.529-1.515a1.162,1.162,0,0,0-1.636,0l-1.527,1.514-1.507-1.494a1.162,1.162,0,0,0-1.64,0l-1.485,1.484-1.589-1.589a1.161,1.161,0,0,0-1.661.018l-.307.32V5.809A3.489,3.489,0,0,1,35.86,2.324H54.546a5.82,5.82,0,0,0-1.186,3.527V18.818A10.468,10.468,0,0,0,46.386,35.73Zm17.437-7.641a8.135,8.135,0,1,1-8.135-8.135A8.144,8.144,0,0,1,62.692,29.208Z" transform="translate(0 0)"/>
    <path id="Path_1771" data-name="Path 1771" class="cls-1" d="M294.514,321.524V323.9h-2.352a1.162,1.162,0,1,0,0,2.324h3.514a1.162,1.162,0,0,0,1.162-1.162v-3.536a1.162,1.162,0,0,0-2.324,0Z" transform="translate(-240.732 -295.542)"/>
    <path id="Path_1772" data-name="Path 1772" class="cls-1" d="M157.3,66.6c-1.112-.866-2.563-1-2.887-1.586a.6.6,0,0,1,.256-.713,1.389,1.389,0,0,1,1.374.1,1.162,1.162,0,1,0,1.576-1.708,3.211,3.211,0,0,0-1.314-.709v-.1a1.162,1.162,0,1,0-2.324,0v.174a2.921,2.921,0,0,0-1.6,4.079,4.182,4.182,0,0,0,2.376,1.743c.637.251,1.575.6,1.5,1.292a1.094,1.094,0,0,1-.624.819A2.486,2.486,0,0,1,153.6,69.7a1.162,1.162,0,1,0-1.272,1.945,4.961,4.961,0,0,0,1.648.666v.148a1.162,1.162,0,1,0,2.324,0v-.237A3.211,3.211,0,0,0,157.3,66.6Z" transform="translate(-112.32 -56.017)"/>
    <path id="Path_1773" data-name="Path 1773" class="cls-1" d="M97.972,256.08H92.161a1.162,1.162,0,1,0,0,2.324h5.811a1.162,1.162,0,1,0,0-2.324Z" transform="translate(-56.226 -236.24)"/>
    <path id="Path_1774" data-name="Path 1774" class="cls-1" d="M97.926,316.18H92.111a1.162,1.162,0,1,0,0,2.324h5.815a1.162,1.162,0,1,0,0-2.324Z" transform="translate(-56.18 -291.684)"/>
    <path id="Path_1775" data-name="Path 1775" class="cls-1" d="M97.88,376.08H92.061a1.162,1.162,0,0,0,0,2.324H97.88a1.162,1.162,0,1,0,0-2.324Z" transform="translate(-56.134 -346.943)"/>
  </g>
</svg>
