<svg xmlns="http://www.w3.org/2000/svg" width="48.868" height="20.193" viewBox="0 0 48.868 20.193">
  <defs>
    <style>
      .cls-1 {
        fill: #495872;
      }
    </style>
  </defs>
  <g id="receive_1_" data-name="receive (1)" transform="translate(0 -300.554)">
    <path id="Path_1778" data-name="Path 1778" class="cls-1" d="M45.3,309.6a7.442,7.442,0,0,0-5.625-1.109l-7.716,1.62a4.613,4.613,0,0,0-2.806-5.255L20.9,301.591a14.8,14.8,0,0,0-10.291-.222L0,305.087v14.178l12.142-4.074,14.777,5.556,21.949-4.525-.372-1.855A7.442,7.442,0,0,0,45.3,309.6ZM27.152,317.77,12.2,312.147l-9.329,3.13v-8.156l8.682-3.043a11.93,11.93,0,0,1,8.291.18l8.262,3.27a1.829,1.829,0,0,1,.028,3.322,1.635,1.635,0,0,1-1.29.042l-10-3.919-1.046,2.67,10,3.919a4.466,4.466,0,0,0,2.46.236l0,.023,11.986-2.517a4.627,4.627,0,0,1,5.151,2.7Z" transform="translate(0)"/>
  </g>
</svg>
