<svg xmlns="http://www.w3.org/2000/svg" width="40.994" height="42.401" viewBox="0 0 40.994 42.401">
  <defs>
    <style>
      .cls-1 {
        fill: #495872;
      }
    </style>
  </defs>
  <g id="check-list_1_" data-name="check-list (1)" transform="translate(-8.5)">
    <path id="Path_512" data-name="Path 512" class="cls-1" d="M48.251,20.87H44.111V19.014a4.889,4.889,0,0,0-3.727-4.723V1.242A1.242,1.242,0,0,0,39.142,0H9.742A1.242,1.242,0,0,0,8.5,1.242V35.279a1.242,1.242,0,0,0,1.242,1.242h19.13v1.018a4.871,4.871,0,0,0,4.87,4.862H44.624a4.871,4.871,0,0,0,4.87-4.862V22.112a1.242,1.242,0,0,0-1.242-1.242Zm-6.625-1.855V20.87H36.74V19.014a2.444,2.444,0,0,1,4.886,0ZM10.984,34.037V2.484H37.9V14.313a4.887,4.887,0,0,0-3.644,4.7v1.855H30.115a1.242,1.242,0,0,0-1.242,1.242V34.037Zm36.025,3.5a2.384,2.384,0,0,1-2.385,2.377H33.742a2.384,2.384,0,0,1-2.385-2.377V23.354h2.9v3.271a1.242,1.242,0,1,0,2.484,0V23.354h4.886v3.271a1.242,1.242,0,0,0,2.484,0V23.354h2.9Z"/>
    <path id="Path_513" data-name="Path 513" class="cls-1" d="M72.216,60.4,70.8,61.913,70.71,61.8a1.242,1.242,0,0,0-1.937,1.556l.994,1.237a1.242,1.242,0,0,0,.923.463h.045a1.243,1.243,0,0,0,.909-.4l2.39-2.567A1.242,1.242,0,0,0,72.216,60.4Z" transform="translate(-55.03 -55.031)"/>
    <path id="Path_514" data-name="Path 514" class="cls-1" d="M170.742,77.984h11.1a1.242,1.242,0,0,0,0-2.484h-11.1a1.242,1.242,0,0,0,0,2.484Z" transform="translate(-147.667 -69.247)"/>
    <path id="Path_515" data-name="Path 515" class="cls-1" d="M72.216,151.4,70.8,152.913l-.094-.118a1.242,1.242,0,0,0-1.937,1.556l.994,1.237a1.242,1.242,0,0,0,.923.463h.045a1.243,1.243,0,0,0,.909-.4l2.39-2.567a1.242,1.242,0,0,0-1.818-1.693Z" transform="translate(-55.03 -138.495)"/>
    <path id="Path_516" data-name="Path 516" class="cls-1" d="M170.742,168.984H177.7a1.242,1.242,0,0,0,0-2.484h-6.956a1.242,1.242,0,1,0,0,2.484Z" transform="translate(-147.667 -152.711)"/>
    <path id="Path_517" data-name="Path 517" class="cls-1" d="M72.216,242.4,70.8,243.913l-.094-.118a1.242,1.242,0,0,0-1.937,1.556l.994,1.237a1.242,1.242,0,0,0,.923.463h.045a1.243,1.243,0,0,0,.909-.4l2.39-2.567a1.242,1.242,0,0,0-1.818-1.693Z" transform="translate(-55.03 -221.959)"/>
    <path id="Path_518" data-name="Path 518" class="cls-1" d="M172.812,257.5h-2.07a1.242,1.242,0,0,0,0,2.484h2.07a1.242,1.242,0,0,0,0-2.484Z" transform="translate(-147.667 -236.175)"/>
  </g>
</svg>
