<svg xmlns="http://www.w3.org/2000/svg" width="46.121" height="37.834" viewBox="0 0 46.121 37.834">
  <defs>
    <style>
      .cls-1 {
        fill: #495872;
      }
    </style>
  </defs>
  <g id="tracking" transform="translate(0 -46)">
    <path id="Path_519" data-name="Path 519" class="cls-1" d="M43.171,63.038a10.049,10.049,0,0,0-8.041-2.9V50.054A4.058,4.058,0,0,0,31.076,46H3.994A4.059,4.059,0,0,0,0,50.054V77.078a4.058,4.058,0,0,0,4.053,4.054c28.025-.093,27.183.222,28.469-.268L35.1,83.438a1.351,1.351,0,0,0,1.911,0l6.163-6.163a10.062,10.062,0,0,0,0-14.237ZM14.953,48.7h5.4v6.756h-5.4ZM4.053,78.429A1.353,1.353,0,0,1,2.7,77.078V50.054A1.353,1.353,0,0,1,4.053,48.7h8.2V56.81A1.351,1.351,0,0,0,13.6,58.161h8.107A1.351,1.351,0,0,0,23.06,56.81V48.7h8.017a1.353,1.353,0,0,1,1.351,1.351V60.765a10.066,10.066,0,0,0-3.493,16.51l1.154,1.154ZM41.26,75.364l-5.207,5.208-5.207-5.208a7.365,7.365,0,1,1,10.415,0Z"/>
    <path id="Path_520" data-name="Path 520" class="cls-1" d="M357.232,266.7a4.306,4.306,0,1,0,4.306,4.306A4.311,4.311,0,0,0,357.232,266.7Zm0,5.909a1.6,1.6,0,1,1,1.6-1.6A1.605,1.605,0,0,1,357.232,272.609Z" transform="translate(-321.134 -200.819)"/>
    <path id="Path_521" data-name="Path 521" class="cls-1" d="M70.414,286H62.3a1.351,1.351,0,0,0,0,2.7h8.116a1.351,1.351,0,0,0,0-2.7Z" transform="translate(-55.457 -218.381)"/>
    <path id="Path_522" data-name="Path 522" class="cls-1" d="M70.405,346H62.3a1.351,1.351,0,0,0,0,2.7h8.107a1.351,1.351,0,0,0,0-2.7Z" transform="translate(-55.457 -272.976)"/>
  </g>
</svg>
