<svg xmlns="http://www.w3.org/2000/svg" width="39.917" height="36.808" viewBox="0 0 39.917 36.808">
  <defs>
    <style>
      .cls-1 {
        fill: #acacac;
      }
    </style>
  </defs>
  <g id="reorder" transform="translate(-12.205 -31.196)">
    <path id="Path_976" data-name="Path 976" class="cls-1" d="M96.272,31.848a7.627,7.627,0,0,0-9.514,2.875l-1.809-1.912a.388.388,0,0,0-.465-.122.382.382,0,0,0-.226.418l.954,5.587a.85.85,0,0,0,.489.627.837.837,0,0,0,.793-.067l4.756-3.082A.387.387,0,0,0,91,35.465l-2.35.018a5.649,5.649,0,0,1,6.822-1.807,1,1,0,0,0,.8-1.827Z" transform="translate(-66.148 0)"/>
    <path id="Path_977" data-name="Path 977" class="cls-1" d="M272.829,33.592a5.647,5.647,0,0,1,2.474,1.9l-2.349-.017a.386.386,0,0,0-.25.708l4.753,3.082a.837.837,0,0,0,.792.067.853.853,0,0,0,.491-.627l.954-5.587a.383.383,0,0,0-.229-.418.388.388,0,0,0-.465.122l-1.77,1.978a7.621,7.621,0,0,0-9.551-2.941,1,1,0,0,0,.8,1.827A5.637,5.637,0,0,1,272.829,33.592Z" transform="translate(-234.013 -0.007)"/>
    <path id="Path_978" data-name="Path 978" class="cls-1" d="M25.069,173.348v-6.43a1.234,1.234,0,0,0-1.234-1.232h-10.4a1.233,1.233,0,0,0-1.232,1.232v23.332a1.233,1.233,0,0,0,1.232,1.233h2.539V177.242a3.9,3.9,0,0,1,3.893-3.894h5.2Z" transform="translate(0 -123.48)"/>
    <path id="Path_979" data-name="Path 979" class="cls-1" d="M99.289,291.781H92a1.234,1.234,0,0,0-1.232,1.233v14.242h8.521a1.232,1.232,0,0,0,1.232-1.233V293.014A1.232,1.232,0,0,0,99.289,291.781Z" transform="translate(-72.13 -239.252)"/>
    <path id="Path_980" data-name="Path 980" class="cls-1" d="M354.322,165.687h-10.4a1.232,1.232,0,0,0-1.232,1.232v6.43h5.2a3.9,3.9,0,0,1,3.893,3.894v14.242h2.539a1.232,1.232,0,0,0,1.232-1.233V166.919A1.231,1.231,0,0,0,354.322,165.687Z" transform="translate(-303.431 -123.481)"/>
    <path id="Path_981" data-name="Path 981" class="cls-1" d="M310.613,291.781h-7.29a1.233,1.233,0,0,0-1.232,1.233v13.009a1.233,1.233,0,0,0,1.232,1.233h8.522V293.014A1.232,1.232,0,0,0,310.613,291.781Z" transform="translate(-266.155 -239.252)"/>
  </g>
</svg>
