<svg xmlns="http://www.w3.org/2000/svg" width="59.6" height="59.47" viewBox="0 0 59.6 59.47">
  <defs>
    <style>
      .cls-1 {
        fill: #495872;
      }
    </style>
  </defs>
  <g id="analytics" transform="translate(0 -0.5)">
    <g id="Group_467" data-name="Group 467" transform="translate(4.906 19.39)">
      <g id="Group_466" data-name="Group 466">
        <path id="Path_969" data-name="Path 969" class="cls-1" d="M78.813,146.8l-4.493,7.36a1.031,1.031,0,0,1-1.42.349c-.013-.013-.026-.013-.039-.026l-4.571-3.034-4.648,5.759a1.028,1.028,0,0,1-1.446.155l-4.687-3.8-4.377,3.1a1.012,1.012,0,0,1-1.149.026L46.547,153.2,42.261,157.3a1.06,1.06,0,0,1-.723.284,1.274,1.274,0,0,1-.31-.039L38,156.574v5.462H64.817a16.633,16.633,0,0,1,13.118-6.262,16.853,16.853,0,0,1,5,.8V148.3Z" transform="translate(-38 -146.8)"/>
      </g>
    </g>
    <g id="Group_469" data-name="Group 469" transform="translate(4.906 9.344)">
      <g id="Group_468" data-name="Group 468">
        <path id="Path_970" data-name="Path 970" class="cls-1" d="M78.413,69l-4.4,5.255a1.031,1.031,0,0,1-1.33.22L67.839,71.5l-4.777,5.681a1.015,1.015,0,0,1-1.188.284l-5.926-2.4L50.679,80a1.029,1.029,0,0,1-.71.284.628.628,0,0,1-.155-.013,1.087,1.087,0,0,1-.749-.5l-2.944-5.113-3.576,2.711a1.033,1.033,0,0,1-1.162.065L38,75.43V86.676l3.267.968L45.721,83.4a1.034,1.034,0,0,1,1.265-.129l5.539,3.538,4.454-3.15a1.047,1.047,0,0,1,1.252.039l4.493,3.628,4.584-5.681a1.025,1.025,0,0,1,1.369-.207l4.467,2.957,4.364-7.166a1.034,1.034,0,0,1,1.24-.439l4.2,1.524V71.285Z" transform="translate(-38 -69)"/>
      </g>
    </g>
    <g id="Group_471" data-name="Group 471" transform="translate(0 1.055)">
      <g id="Group_470" data-name="Group 470" transform="translate(0 0)">
        <path id="Path_971" data-name="Path 971" class="cls-1" d="M3.912,40.436a1.007,1.007,0,0,1-1.072-.955V4.8H0V41.934a1.406,1.406,0,0,0,1.472,1.343H29a16.214,16.214,0,0,1,1.317-2.841Z" transform="translate(0 -4.8)"/>
      </g>
    </g>
    <g id="Group_473" data-name="Group 473" transform="translate(4.906 0.5)">
      <g id="Group_472" data-name="Group 472" transform="translate(0 0)">
        <path id="Path_972" data-name="Path 972" class="cls-1" d="M77.806,1.52a.888.888,0,0,1-.413-.026L73.571.5l-4.2,4.945a1.048,1.048,0,0,1-1.033.336L63.487,4.593,58.968,9.977a1.04,1.04,0,0,1-1.459.129l-.039-.039L52.229,5.174,48.445,7.059A1.043,1.043,0,0,1,47.3,6.917L42.222,2.5,38,7.537v5.836l3.835,2.285L45.8,12.65a1.03,1.03,0,0,1,1.446.194c.026.039.052.065.077.1l2.892,5,4.8-4.493a1.041,1.041,0,0,1,1.1-.207l5.823,2.4,4.868-5.784a1.046,1.046,0,0,1,1.33-.219L72.977,12.6l4.351-5.19a1.031,1.031,0,0,1,1.252-.258l4.351,2.195V.719Z" transform="translate(-38 -0.5)"/>
      </g>
    </g>
    <g id="Group_475" data-name="Group 475" transform="translate(49.322 43.405)">
      <g id="Group_474" data-name="Group 474">
        <path id="Path_973" data-name="Path 973" class="cls-1" d="M382.3,332.8c-.142,0-.3.207-.3.349v2.5a.275.275,0,0,0,.3.245H386v-3.1Z" transform="translate(-382 -332.8)"/>
      </g>
    </g>
    <g id="Group_477" data-name="Group 477" transform="translate(30.084 30.468)">
      <g id="Group_476" data-name="Group 476">
        <path id="Path_974" data-name="Path 974" class="cls-1" d="M247.758,232.6a14.751,14.751,0,1,0,14.758,14.745A14.751,14.751,0,0,0,247.758,232.6Zm6.933,23.008H241.78a3.609,3.609,0,0,1-3.615-3.615V242.18a3.609,3.609,0,0,1,3.615-3.615h12.911a3.609,3.609,0,0,1,3.615,3.615v9.813A3.609,3.609,0,0,1,254.691,255.608Z" transform="translate(-233 -232.6)"/>
      </g>
    </g>
    <g id="Group_479" data-name="Group 479" transform="translate(37.314 38.499)">
      <g id="Group_478" data-name="Group 478">
        <path id="Path_975" data-name="Path 975" class="cls-1" d="M301.3,297.641h3.706v-1.252a1.633,1.633,0,0,0-1.6-1.588H290.5a1.544,1.544,0,0,0-1.5,1.588V306.2a1.483,1.483,0,0,0,1.446,1.511h12.963a1.566,1.566,0,0,0,1.6-1.511v-1.33H301.3a2.345,2.345,0,0,1-2.363-2.311v-2.5A2.443,2.443,0,0,1,301.3,297.641Z" transform="translate(-288.999 -294.8)"/>
      </g>
    </g>
  </g>
</svg>
