<svg xmlns="http://www.w3.org/2000/svg" width="52.873" height="51.859" viewBox="0 0 52.873 51.859">
  <defs>
    <style>
      .cls-1 {
        fill: #c9ddff;
      }
    </style>
  </defs>
  <g id="catalog" transform="translate(0 -3.17)">
    <g id="Group_465" data-name="Group 465" transform="translate(0 3.17)">
      <path id="Path_967" data-name="Path 967" class="cls-1" d="M49.1,29.221a1.3,1.3,0,0,0-1.663-.772L35.29,32.9l9.818-9.81a1.3,1.3,0,0,0,0-1.834l-7.595-7.6a1.3,1.3,0,0,0-1.833,0L26.05,23.277l5.4-12.811a1.294,1.294,0,0,0-.691-1.7l-9.9-4.174a1.3,1.3,0,0,0-1.7.691L13.829,17.938V4.466a1.3,1.3,0,0,0-1.3-1.3H1.3A1.3,1.3,0,0,0,0,4.466V53.732a1.3,1.3,0,0,0,1.3,1.3H12.532a1.3,1.3,0,0,0,.449-.084,1.234,1.234,0,0,0,.884,0L52.022,40.97a1.3,1.3,0,0,0,.771-1.663ZM28.559,10.653l-7.37,17.482L19.853,31.3l-1.336,3.167-2.28,5.408-1.377,3.266-1.032,2.45V24.613l7.22-17.125ZM18.189,41.923l1.377-3.265L23.38,29.61,36.595,16.4l5.762,5.765L29.5,35.02l-4.362,4.359L14.986,49.522Zm-.975,9.038,13.712-13.7L47.11,31.329l2.8,7.652Z" transform="translate(0 -3.17)"/>
      <path id="Path_968" data-name="Path 968" class="cls-1" d="M34.591,277.668c-.094,0-.183.021-.274.027a3.088,3.088,0,0,0-2.725,2.341,3.11,3.11,0,0,0-.094.725,3.112,3.112,0,0,0,3.093,3.091,2.81,2.81,0,0,0,.437-.045,3.058,3.058,0,0,0,1.617-.753,3.1,3.1,0,0,0,.557-.655,3.044,3.044,0,0,0,.452-1.366c.008-.092.027-.181.027-.275A3.087,3.087,0,0,0,34.591,277.668Z" transform="translate(-27.676 -234.952)"/>
    </g>
  </g>
</svg>
