<svg xmlns="http://www.w3.org/2000/svg" width="40.954" height="36.912" viewBox="0 0 40.954 36.912">
  <defs>
    <style>
      .cls-1 {
        fill: #acacac;
      }
    </style>
  </defs>
  <g id="file_11_" data-name="file (11)" transform="translate(0 -21.136)">
    <g id="Group_464" data-name="Group 464" transform="translate(0 21.136)">
      <path id="Path_958" data-name="Path 958" class="cls-1" d="M35.47,46.984H32.925V26.619a5.474,5.474,0,0,0-5.483-5.483H5.216a.621.621,0,0,0-.294.049,5.514,5.514,0,0,0,0,10.966c.1,0,.2.049.294.049H5.51V52.614a5.528,5.528,0,0,0,5.483,5.434H35.47a5.532,5.532,0,0,0,0-11.064ZM5.51,29.214v-.049a2.546,2.546,0,0,1,0-5.091H22.595a5.6,5.6,0,0,0,0,5.14Zm23.5,20.023H8.936V46.3H29.008Zm0-5.875H8.936V40.424H29.008Zm0-5.875H8.936V34.55H29.008Zm6.511,17.526a2.528,2.528,0,0,1-2.546-2.546V49.922h2.546a2.546,2.546,0,1,1,0,5.091Z" transform="translate(0 -21.136)"/>
    </g>
  </g>
</svg>
