<svg xmlns="http://www.w3.org/2000/svg" width="39.375" height="38.619" viewBox="0 0 39.375 38.619">
  <defs>
    <style>
      .cls-1 {
        fill: #acacac;
      }
    </style>
  </defs>
  <g id="catalog" transform="translate(0 -3.17)">
    <g id="Group_465" data-name="Group 465" transform="translate(0 3.17)">
      <path id="Path_967" data-name="Path 967" class="cls-1" d="M36.564,22.57a.964.964,0,0,0-1.238-.575L26.28,25.308,33.592,18a.968.968,0,0,0,0-1.366l-5.656-5.659a.965.965,0,0,0-1.365,0L19.4,18.143,23.422,8.6a.964.964,0,0,0-.515-1.264L15.535,4.231a.964.964,0,0,0-1.265.514L10.3,14.167V4.135a.966.966,0,0,0-.965-.965H.965A.966.966,0,0,0,0,4.135V40.824a.966.966,0,0,0,.965.965H9.333a.968.968,0,0,0,.334-.063.919.919,0,0,0,.658,0L38.741,31.32a.965.965,0,0,0,.574-1.238ZM21.268,8.743,15.779,21.762l-.994,2.358-.995,2.358-1.7,4.027-1.026,2.432L10.3,34.762V19.139L15.675,6.386ZM13.546,32.029,14.571,29.6l2.84-6.738,9.841-9.834,4.291,4.293-9.576,9.57L18.72,30.134,11.16,37.688ZM12.82,38.76l10.212-10.2L35.083,24.14l2.087,5.7Z" transform="translate(0 -3.17)"/>
      <path id="Path_968" data-name="Path 968" class="cls-1" d="M33.8,277.668c-.07,0-.136.016-.2.02a2.3,2.3,0,0,0-2.029,1.744,2.315,2.315,0,0,0-.07.54,2.317,2.317,0,0,0,2.3,2.3,2.092,2.092,0,0,0,.325-.033,2.277,2.277,0,0,0,1.2-.561,2.306,2.306,0,0,0,.414-.488,2.267,2.267,0,0,0,.337-1.017c.006-.068.02-.135.02-.2A2.3,2.3,0,0,0,33.8,277.668Z" transform="translate(-28.651 -245.857)"/>
    </g>
  </g>
</svg>
