<svg xmlns="http://www.w3.org/2000/svg" width="39.869" height="45.378" viewBox="0 0 39.869 45.378">
  <defs>
    <style>
      .cls-1 {
        fill: #acacac;
      }
    </style>
  </defs>
  <g id="group-of-users-silhouette" transform="translate(-5.536)">
    <path id="Path_966" data-name="Path 966" class="cls-1" d="M19.125,6.346a6.346,6.346,0,1,1,6.347,6.346A6.347,6.347,0,0,1,19.125,6.346Zm9.4,10.67A6.874,6.874,0,0,1,29.826,13.3a8.1,8.1,0,0,0-1.662-.172H22.779a8.113,8.113,0,0,0-1.657.171,6.885,6.885,0,0,1,1.31,4,6.924,6.924,0,0,1,6.089-.283Zm1.075.569a7.245,7.245,0,0,1,3.371,5.382A5.845,5.845,0,1,0,29.6,17.585ZM25.764,29.558a5.847,5.847,0,1,0-5.848-5.848A5.848,5.848,0,0,0,25.764,29.558Zm2.48.4H23.283A7.5,7.5,0,0,0,15.8,37.443v6.068l.015.095.418.131a34.1,34.1,0,0,0,10.179,1.641A20.889,20.889,0,0,0,35.3,43.709l.391-.2h.042V37.443A7.493,7.493,0,0,0,28.245,29.956Zm9.674-6.036H33a7.207,7.207,0,0,1-2.224,5.019,8.9,8.9,0,0,1,6.354,8.513v1.87a20.168,20.168,0,0,0,7.847-1.648l.391-.2h.042v-6.07A7.5,7.5,0,0,0,37.919,23.92Zm-22.414-.4a5.808,5.808,0,0,0,3.11-.9A7.236,7.236,0,0,1,21.335,18c.006-.109.016-.218.016-.328A5.847,5.847,0,1,0,15.5,23.521Zm5.251,5.419a7.211,7.211,0,0,1-2.223-4.991c-.183-.013-.363-.028-.549-.028H13.023a7.5,7.5,0,0,0-7.487,7.486v6.068l.015.094.418.131A35.1,35.1,0,0,0,14.4,39.285V37.452A8.9,8.9,0,0,1,20.756,28.94Z"/>
  </g>
</svg>
