<svg xmlns="http://www.w3.org/2000/svg" width="34.254" height="35.435" viewBox="0 0 34.254 35.435">
  <defs>
    <style>
      .cls-1 {
        fill: #acacac;
      }
    </style>
  </defs>
  <g id="discount_1_" data-name="discount (1)" transform="translate(-3 -1)">
    <path id="Path_952" data-name="Path 952" class="cls-1" d="M36.733,4.346A3.7,3.7,0,0,0,37.2,3.1a3.516,3.516,0,0,0-1.9,1.045L13.39,27.5,12.96,27.1a5.918,5.918,0,0,0-4.066-1.611c-.2,0-.4.011-.6.031a5.907,5.907,0,0,0-3.646,9.966A5.857,5.857,0,0,0,8.906,37.3a6.663,6.663,0,0,0,5.721-3.272L17.5,29.134a3.81,3.81,0,0,1,4.487-1.683l.826.276ZM8.906,34.934A3.544,3.544,0,1,1,12.45,31.39,3.548,3.548,0,0,1,8.906,34.934Zm11.221-8.859A1.772,1.772,0,1,1,21.9,24.3,1.774,1.774,0,0,1,20.127,26.075Z" transform="translate(0 -0.861)"/>
    <circle id="Ellipse_71" data-name="Ellipse 71" class="cls-1" cx="0.869" cy="0.869" r="0.869" transform="translate(19.272 22.9)"/>
    <path id="Path_953" data-name="Path 953" class="cls-1" d="M45.561,41.032a5.922,5.922,0,0,0-4.667,1.58l-.431.406-1.553-1.657-1.966,3.3-.728-.243,3.011,5.119a6.663,6.663,0,0,0,5.721,3.272,5.906,5.906,0,0,0,.614-11.78Zm-.614,9.418a3.544,3.544,0,1,1,3.544-3.544A3.548,3.548,0,0,1,44.947,50.45Z" transform="translate(-13.599 -16.377)"/>
    <path id="Path_954" data-name="Path 954" class="cls-1" d="M15.2,23.892l4.161-4.438L5,4.148A3.518,3.518,0,0,0,3.1,3.1a3.705,3.705,0,0,0,.463,1.243Z" transform="translate(-0.04 -0.861)"/>
    <path id="Path_955" data-name="Path 955" class="cls-1" d="M4.181,29.978v1.29H5.362V30.087H6.544V28.315a1.774,1.774,0,0,0-1.772-1.772.591.591,0,0,1-.591-.591v-.591h.591a.591.591,0,0,1,.591.591v.591H6.544v-.591A1.769,1.769,0,0,0,5.362,24.29V23H4.181v1.181H3v1.772a1.774,1.774,0,0,0,1.772,1.772.591.591,0,0,1,.591.591v.591H4.772a.591.591,0,0,1-.591-.591v-.591H3v.591A1.769,1.769,0,0,0,4.181,29.978Z" transform="translate(0 -9.007)"/>
    <path id="Path_956" data-name="Path 956" class="cls-1" d="M58.544,26.544v-.591a1.769,1.769,0,0,0-1.181-1.663V23H56.181v1.181H55v1.772a1.774,1.774,0,0,0,1.772,1.772.591.591,0,0,1,.591.591v.591h-.591a.591.591,0,0,1-.591-.591v-.591H55v.591a1.769,1.769,0,0,0,1.181,1.663v1.29h1.181V30.087h1.181V28.315a1.774,1.774,0,0,0-1.772-1.772.591.591,0,0,1-.591-.591v-.591h.591a.591.591,0,0,1,.591.591v.591Z" transform="translate(-21.29 -9.007)"/>
    <path id="Path_957" data-name="Path 957" class="cls-1" d="M29.362,12.752v1.241h1.181V12.812h2.362V9.859a2.956,2.956,0,0,0-2.953-2.953,1.774,1.774,0,0,1-1.772-1.772V3.362h1.772a1.774,1.774,0,0,1,1.772,1.772V6.906h1.181V5.134a2.958,2.958,0,0,0-2.362-2.893V1H29.362V2.181H27V5.134a2.956,2.956,0,0,0,2.953,2.953,1.774,1.774,0,0,1,1.772,1.772v1.772H29.953a1.774,1.774,0,0,1-1.772-1.772V8.087H27V9.859A2.958,2.958,0,0,0,29.362,12.752Z" transform="translate(-9.826)"/>
  </g>
</svg>
