<svg xmlns="http://www.w3.org/2000/svg" width="42.507" height="42.415" viewBox="0 0 42.507 42.415">
  <defs>
    <style>
      .cls-1 {
        fill: #acacac;
      }
    </style>
  </defs>
  <g id="analytics" transform="translate(0 -0.5)">
    <g id="Group_467" data-name="Group 467" transform="translate(3.499 13.972)">
      <g id="Group_466" data-name="Group 466">
        <path id="Path_969" data-name="Path 969" class="cls-1" d="M67.108,146.8l-3.2,5.249a.735.735,0,0,1-1.013.249c-.009-.009-.018-.009-.028-.018l-3.26-2.164-3.315,4.107a.733.733,0,0,1-1.031.11l-3.343-2.707-3.122,2.21a.721.721,0,0,1-.82.018L44.1,151.367l-3.057,2.919a.756.756,0,0,1-.516.2.908.908,0,0,1-.221-.028l-2.3-.691v3.9H57.126a11.863,11.863,0,0,1,9.356-4.466,12.019,12.019,0,0,1,3.564.571v-5.9Z" transform="translate(-38 -146.8)"/>
      </g>
    </g>
    <g id="Group_469" data-name="Group 469" transform="translate(3.499 6.808)">
      <g id="Group_468" data-name="Group 468">
        <path id="Path_970" data-name="Path 970" class="cls-1" d="M66.823,69l-3.14,3.748a.735.735,0,0,1-.948.157l-3.453-2.118-3.407,4.052a.724.724,0,0,1-.847.2L50.8,73.328l-3.757,3.518a.734.734,0,0,1-.506.2.448.448,0,0,1-.111-.009.776.776,0,0,1-.534-.359l-2.1-3.647-2.551,1.934a.737.737,0,0,1-.829.046L38,73.586v8.021l2.33.691,3.177-3.03a.737.737,0,0,1,.9-.092L48.36,81.7l3.177-2.247a.746.746,0,0,1,.893.028l3.2,2.588L58.9,78.015a.731.731,0,0,1,.976-.147l3.186,2.109,3.113-5.111a.738.738,0,0,1,.884-.313l2.993,1.087V70.63Z" transform="translate(-38 -69)"/>
      </g>
    </g>
    <g id="Group_471" data-name="Group 471" transform="translate(0 0.896)">
      <g id="Group_470" data-name="Group 470" transform="translate(0 0)">
        <path id="Path_971" data-name="Path 971" class="cls-1" d="M2.79,30.216a.718.718,0,0,1-.764-.681V4.8H0V31.284a1,1,0,0,0,1.05.958H20.682a11.564,11.564,0,0,1,.939-2.026Z" transform="translate(0 -4.8)"/>
      </g>
    </g>
    <g id="Group_473" data-name="Group 473" transform="translate(3.499 0.5)">
      <g id="Group_472" data-name="Group 472" transform="translate(0 0)">
        <path id="Path_972" data-name="Path 972" class="cls-1" d="M66.39,1.227a.633.633,0,0,1-.295-.018L63.37.5,60.377,4.027a.748.748,0,0,1-.737.239l-3.462-.847-3.223,3.84a.742.742,0,0,1-1.041.092l-.028-.028-3.739-3.49-2.7,1.344a.744.744,0,0,1-.82-.1L41.011,1.927,38,5.519V9.681l2.735,1.63,2.827-2.146a.735.735,0,0,1,1.031.138c.018.028.037.046.055.074l2.063,3.564,3.426-3.2a.743.743,0,0,1,.783-.147L55.073,11.3l3.472-4.125a.746.746,0,0,1,.948-.157l3.453,2.109,3.1-3.7a.735.735,0,0,1,.893-.184l3.1,1.565V.657Z" transform="translate(-38 -0.5)"/>
      </g>
    </g>
    <g id="Group_475" data-name="Group 475" transform="translate(35.177 31.1)">
      <g id="Group_474" data-name="Group 474">
        <path id="Path_973" data-name="Path 973" class="cls-1" d="M382.212,332.8c-.1,0-.212.147-.212.249v1.786a.2.2,0,0,0,.212.175h2.643V332.8Z" transform="translate(-382 -332.8)"/>
      </g>
    </g>
    <g id="Group_477" data-name="Group 477" transform="translate(21.456 21.873)">
      <g id="Group_476" data-name="Group 476">
        <path id="Path_974" data-name="Path 974" class="cls-1" d="M243.525,232.6a10.521,10.521,0,1,0,10.525,10.516A10.521,10.521,0,0,0,243.525,232.6Zm4.945,16.41h-9.209a2.574,2.574,0,0,1-2.578-2.578v-7a2.574,2.574,0,0,1,2.578-2.578h9.209a2.574,2.574,0,0,1,2.578,2.578v7A2.574,2.574,0,0,1,248.47,249.01Z" transform="translate(-233 -232.6)"/>
      </g>
    </g>
    <g id="Group_479" data-name="Group 479" transform="translate(26.613 27.601)">
      <g id="Group_478" data-name="Group 478">
        <path id="Path_975" data-name="Path 975" class="cls-1" d="M297.774,296.826h2.643v-.893a1.164,1.164,0,0,0-1.142-1.133h-9.209A1.1,1.1,0,0,0,289,295.933v7a1.058,1.058,0,0,0,1.031,1.077h9.245a1.117,1.117,0,0,0,1.142-1.077v-.949h-2.643a1.672,1.672,0,0,1-1.685-1.648v-1.786A1.743,1.743,0,0,1,297.774,296.826Z" transform="translate(-288.999 -294.8)"/>
      </g>
    </g>
  </g>
</svg>
