<svg id="shipping" xmlns="http://www.w3.org/2000/svg" width="42.912" height="42.912" viewBox="0 0 42.912 42.912">
  <defs>
    <style>
      .cls-1 {
        fill: #acacac;
      }
    </style>
  </defs>
  <path id="Path_963" data-name="Path 963" class="cls-1" d="M19.668,14.341A1.345,1.345,0,0,0,18.327,13H11.622v5.364a1.788,1.788,0,1,1-3.576,0V13H1.341A1.344,1.344,0,0,0,0,14.341V31.327a1.344,1.344,0,0,0,1.341,1.341H18.327a1.345,1.345,0,0,0,1.341-1.341Z" transform="translate(0 10.244)"/>
  <path id="Path_964" data-name="Path 964" class="cls-1" d="M32.668,14.341A1.345,1.345,0,0,0,31.327,13H24.622v5.364a1.788,1.788,0,1,1-3.576,0V13H14.341A1.344,1.344,0,0,0,13,14.341V31.327a1.344,1.344,0,0,0,1.341,1.341H31.327a1.345,1.345,0,0,0,1.341-1.341Z" transform="translate(10.244 10.244)"/>
  <path id="Path_965" data-name="Path 965" class="cls-1" d="M26.168,1.341A1.346,1.346,0,0,0,24.827,0H18.122V5.364a1.788,1.788,0,1,1-3.576,0V0H7.841A1.345,1.345,0,0,0,6.5,1.341V18.327a1.344,1.344,0,0,0,1.341,1.341H24.827a1.345,1.345,0,0,0,1.341-1.341Z" transform="translate(5.122)"/>
</svg>
