<svg xmlns="http://www.w3.org/2000/svg" width="38.61" height="38.609" viewBox="0 0 38.61 38.609">
  <defs>
    <style>
      .cls-1 {
        fill: #acacac;
      }
    </style>
  </defs>
  <g id="approved-signal" transform="translate(0 -0.002)">
    <path id="Path_959" data-name="Path 959" class="cls-1" d="M36.023,9.654l-4.48-2.587L28.957,2.589H23.784L19.3,0l-4.48,2.587H9.652L7.066,7.068,2.587,9.654v5.172L0,19.307l2.587,4.48v5.172l4.48,2.587,2.587,4.48h5.172L19.3,38.611l4.48-2.587h5.172l2.587-4.48,4.48-2.587V23.786l2.587-4.48-2.587-4.48V9.654ZM17.562,27.208a1.879,1.879,0,0,1-2.613,0L9.3,21.562A1.812,1.812,0,0,1,9.3,19L10.8,17.505a1.812,1.812,0,0,1,2.562,0l2.9,2.9,8.992-8.993a1.812,1.812,0,0,1,2.562,0L29.3,12.9a1.812,1.812,0,0,1,0,2.562Z"/>
  </g>
</svg>
