<svg xmlns="http://www.w3.org/2000/svg" width="53.873" height="49.677" viewBox="0 0 53.873 49.677">
  <defs>
    <style>
      .cls-1 {
        fill: #c9ddff;
      }
    </style>
  </defs>
  <g id="reorder" transform="translate(-12.205 -31.196)">
    <path id="Path_976" data-name="Path 976" class="cls-1" d="M100.474,32.076a10.294,10.294,0,0,0-12.841,3.88l-2.441-2.581a.523.523,0,0,0-.628-.165.515.515,0,0,0-.306.565l1.287,7.541a1.148,1.148,0,0,0,.66.846,1.13,1.13,0,0,0,1.07-.09l6.418-4.16a.522.522,0,0,0-.34-.956l-3.171.024a7.624,7.624,0,0,1,9.207-2.439,1.347,1.347,0,0,0,1.084-2.466Z" transform="translate(-64.086)"/>
    <path id="Path_977" data-name="Path 977" class="cls-1" d="M274.838,34.427a7.622,7.622,0,0,1,3.339,2.559l-3.17-.023a.521.521,0,0,0-.337.956l6.415,4.16a1.13,1.13,0,0,0,1.069.09,1.151,1.151,0,0,0,.663-.846l1.287-7.541a.516.516,0,0,0-.309-.565.524.524,0,0,0-.628.165l-2.388,2.669a10.285,10.285,0,0,0-12.89-3.969,1.347,1.347,0,0,0,1.084,2.466A7.608,7.608,0,0,1,274.838,34.427Z" transform="translate(-226.718 -0.007)"/>
    <path id="Path_978" data-name="Path 978" class="cls-1" d="M29.566,176.027v-8.678a1.665,1.665,0,0,0-1.666-1.663H13.867a1.664,1.664,0,0,0-1.662,1.663v31.49a1.665,1.665,0,0,0,1.662,1.664h3.427V181.282a5.26,5.26,0,0,1,5.254-5.255h7.018Z" transform="translate(0 -119.63)"/>
    <path id="Path_979" data-name="Path 979" class="cls-1" d="M102.268,291.781H92.43a1.665,1.665,0,0,0-1.663,1.664v19.221h11.5A1.663,1.663,0,0,0,103.931,311V293.445A1.663,1.663,0,0,0,102.268,291.781Z" transform="translate(-69.882 -231.793)"/>
    <path id="Path_980" data-name="Path 980" class="cls-1" d="M358.388,165.687H344.355a1.662,1.662,0,0,0-1.663,1.663v8.678h7.015a5.26,5.26,0,0,1,5.254,5.255V200.5h3.427a1.662,1.662,0,0,0,1.662-1.664V167.35A1.662,1.662,0,0,0,358.388,165.687Z" transform="translate(-293.972 -119.631)"/>
    <path id="Path_981" data-name="Path 981" class="cls-1" d="M313.593,291.781h-9.838a1.665,1.665,0,0,0-1.662,1.664V311a1.665,1.665,0,0,0,1.662,1.664h11.5V293.445A1.663,1.663,0,0,0,313.593,291.781Z" transform="translate(-257.858 -231.793)"/>
  </g>
</svg>
