<svg id="Group_400" data-name="Group 400" xmlns="http://www.w3.org/2000/svg" width="54.209" height="138.126" viewBox="0 0 54.209 138.126">
  <defs>
    <style>
      .cls-1 {
        fill: #2267d5;
      }
    </style>
  </defs>
  <g id="Group_135" data-name="Group 135" transform="translate(0 0)">
    <g id="Group_131" data-name="Group 131">
      <path id="Path_288" data-name="Path 288" class="cls-1" d="M2.582,5.168A2.584,2.584,0,1,1,5.166,2.584,2.586,2.586,0,0,1,2.582,5.168Z"/>
    </g>
    <g id="Group_132" data-name="Group 132" transform="translate(16.349)">
      <path id="Path_289" data-name="Path 289" class="cls-1" d="M2.582,5.168A2.584,2.584,0,1,1,5.166,2.584,2.585,2.585,0,0,1,2.582,5.168Z" transform="translate(0)"/>
    </g>
    <g id="Group_133" data-name="Group 133" transform="translate(32.695)">
      <path id="Path_290" data-name="Path 290" class="cls-1" d="M2.584,5.168A2.584,2.584,0,1,1,5.168,2.584,2.587,2.587,0,0,1,2.584,5.168Z"/>
    </g>
    <g id="Group_134" data-name="Group 134" transform="translate(49.044)">
      <path id="Path_291" data-name="Path 291" class="cls-1" d="M2.584,5.168A2.584,2.584,0,1,1,5.166,2.584,2.585,2.585,0,0,1,2.584,5.168Z"/>
    </g>
  </g>
  <g id="Group_140" data-name="Group 140" transform="translate(0 18.996)">
    <g id="Group_136" data-name="Group 136" transform="translate(0 0)">
      <path id="Path_292" data-name="Path 292" class="cls-1" d="M2.582,5.168A2.584,2.584,0,1,1,5.166,2.582,2.588,2.588,0,0,1,2.582,5.168Z" transform="translate(0 0)"/>
    </g>
    <g id="Group_137" data-name="Group 137" transform="translate(16.349 0)">
      <path id="Path_293" data-name="Path 293" class="cls-1" d="M2.582,5.168A2.584,2.584,0,1,1,5.166,2.582,2.587,2.587,0,0,1,2.582,5.168Z" transform="translate(0 0)"/>
    </g>
    <g id="Group_138" data-name="Group 138" transform="translate(32.695 0)">
      <path id="Path_294" data-name="Path 294" class="cls-1" d="M2.584,5.168A2.584,2.584,0,1,1,5.168,2.582,2.589,2.589,0,0,1,2.584,5.168Z" transform="translate(0 0)"/>
    </g>
    <g id="Group_139" data-name="Group 139" transform="translate(49.044 0)">
      <path id="Path_295" data-name="Path 295" class="cls-1" d="M2.584,5.168A2.584,2.584,0,1,1,5.166,2.582,2.587,2.587,0,0,1,2.584,5.168Z" transform="translate(0 0)"/>
    </g>
  </g>
  <g id="Group_145" data-name="Group 145" transform="translate(0 37.989)">
    <g id="Group_141" data-name="Group 141">
      <path id="Path_296" data-name="Path 296" class="cls-1" d="M2.582,5.166A2.583,2.583,0,1,1,5.166,2.582,2.586,2.586,0,0,1,2.582,5.166Z"/>
    </g>
    <g id="Group_142" data-name="Group 142" transform="translate(16.349)">
      <path id="Path_297" data-name="Path 297" class="cls-1" d="M2.582,5.166A2.583,2.583,0,1,1,5.166,2.582,2.585,2.585,0,0,1,2.582,5.166Z" transform="translate(0)"/>
    </g>
    <g id="Group_143" data-name="Group 143" transform="translate(32.695)">
      <path id="Path_298" data-name="Path 298" class="cls-1" d="M2.584,5.166A2.583,2.583,0,1,1,5.168,2.582,2.587,2.587,0,0,1,2.584,5.166Z"/>
    </g>
    <g id="Group_144" data-name="Group 144" transform="translate(49.044)">
      <path id="Path_299" data-name="Path 299" class="cls-1" d="M2.584,5.166A2.583,2.583,0,1,1,5.166,2.582,2.585,2.585,0,0,1,2.584,5.166Z"/>
    </g>
  </g>
  <g id="Group_150" data-name="Group 150" transform="translate(0 56.982)">
    <g id="Group_146" data-name="Group 146">
      <path id="Path_300" data-name="Path 300" class="cls-1" d="M2.582,5.168A2.584,2.584,0,1,1,5.166,2.584,2.588,2.588,0,0,1,2.582,5.168Z"/>
    </g>
    <g id="Group_147" data-name="Group 147" transform="translate(16.349)">
      <path id="Path_301" data-name="Path 301" class="cls-1" d="M2.582,5.168A2.584,2.584,0,1,1,5.166,2.584,2.586,2.586,0,0,1,2.582,5.168Z" transform="translate(0)"/>
    </g>
    <g id="Group_148" data-name="Group 148" transform="translate(32.695)">
      <path id="Path_302" data-name="Path 302" class="cls-1" d="M2.584,5.168A2.584,2.584,0,1,1,5.168,2.584,2.588,2.588,0,0,1,2.584,5.168Z"/>
    </g>
    <g id="Group_149" data-name="Group 149" transform="translate(49.044)">
      <path id="Path_303" data-name="Path 303" class="cls-1" d="M2.584,5.168A2.584,2.584,0,1,1,5.166,2.584,2.587,2.587,0,0,1,2.584,5.168Z"/>
    </g>
  </g>
  <g id="Group_155" data-name="Group 155" transform="translate(0 75.976)">
    <g id="Group_151" data-name="Group 151">
      <path id="Path_304" data-name="Path 304" class="cls-1" d="M2.582,5.17A2.585,2.585,0,1,1,5.166,2.584,2.588,2.588,0,0,1,2.582,5.17Z"/>
    </g>
    <g id="Group_152" data-name="Group 152" transform="translate(16.349)">
      <path id="Path_305" data-name="Path 305" class="cls-1" d="M2.582,5.17A2.585,2.585,0,1,1,5.166,2.584,2.587,2.587,0,0,1,2.582,5.17Z" transform="translate(0)"/>
    </g>
    <g id="Group_153" data-name="Group 153" transform="translate(32.695)">
      <path id="Path_306" data-name="Path 306" class="cls-1" d="M2.584,5.17A2.585,2.585,0,1,1,5.168,2.584,2.589,2.589,0,0,1,2.584,5.17Z"/>
    </g>
    <g id="Group_154" data-name="Group 154" transform="translate(49.044)">
      <path id="Path_307" data-name="Path 307" class="cls-1" d="M2.584,5.17A2.585,2.585,0,1,1,5.166,2.584,2.587,2.587,0,0,1,2.584,5.17Z"/>
    </g>
  </g>
  <g id="Group_160" data-name="Group 160" transform="translate(0 94.971)">
    <g id="Group_156" data-name="Group 156">
      <path id="Path_308" data-name="Path 308" class="cls-1" d="M2.582,5.168A2.584,2.584,0,1,1,5.166,2.582,2.588,2.588,0,0,1,2.582,5.168Z"/>
    </g>
    <g id="Group_157" data-name="Group 157" transform="translate(16.349)">
      <path id="Path_309" data-name="Path 309" class="cls-1" d="M2.582,5.168A2.584,2.584,0,1,1,5.166,2.582,2.587,2.587,0,0,1,2.582,5.168Z" transform="translate(0)"/>
    </g>
    <g id="Group_158" data-name="Group 158" transform="translate(32.695)">
      <path id="Path_310" data-name="Path 310" class="cls-1" d="M2.584,5.168A2.584,2.584,0,1,1,5.168,2.582,2.589,2.589,0,0,1,2.584,5.168Z"/>
    </g>
    <g id="Group_159" data-name="Group 159" transform="translate(49.044)">
      <path id="Path_311" data-name="Path 311" class="cls-1" d="M2.584,5.168A2.584,2.584,0,1,1,5.166,2.582,2.587,2.587,0,0,1,2.584,5.168Z"/>
    </g>
  </g>
  <g id="Group_165" data-name="Group 165" transform="translate(0 113.965)">
    <g id="Group_161" data-name="Group 161">
      <path id="Path_312" data-name="Path 312" class="cls-1" d="M2.582,5.168A2.584,2.584,0,1,1,5.166,2.584,2.588,2.588,0,0,1,2.582,5.168Z"/>
    </g>
    <g id="Group_162" data-name="Group 162" transform="translate(16.349)">
      <path id="Path_313" data-name="Path 313" class="cls-1" d="M2.582,5.168A2.584,2.584,0,1,1,5.166,2.584,2.586,2.586,0,0,1,2.582,5.168Z" transform="translate(0)"/>
    </g>
    <g id="Group_163" data-name="Group 163" transform="translate(32.695)">
      <path id="Path_314" data-name="Path 314" class="cls-1" d="M2.584,5.168A2.584,2.584,0,1,1,5.168,2.584,2.588,2.588,0,0,1,2.584,5.168Z"/>
    </g>
    <g id="Group_164" data-name="Group 164" transform="translate(49.044)">
      <path id="Path_315" data-name="Path 315" class="cls-1" d="M2.584,5.168A2.584,2.584,0,1,1,5.166,2.584,2.587,2.587,0,0,1,2.584,5.168Z"/>
    </g>
  </g>
  <g id="Group_170" data-name="Group 170" transform="translate(0 132.958)">
    <g id="Group_166" data-name="Group 166">
      <path id="Path_316" data-name="Path 316" class="cls-1" d="M2.582,5.168A2.584,2.584,0,1,1,5.166,2.586,2.586,2.586,0,0,1,2.582,5.168Z"/>
    </g>
    <g id="Group_167" data-name="Group 167" transform="translate(16.349)">
      <path id="Path_317" data-name="Path 317" class="cls-1" d="M2.582,5.168A2.584,2.584,0,1,1,5.166,2.586,2.584,2.584,0,0,1,2.582,5.168Z" transform="translate(0)"/>
    </g>
    <g id="Group_168" data-name="Group 168" transform="translate(32.695)">
      <path id="Path_318" data-name="Path 318" class="cls-1" d="M2.584,5.168A2.584,2.584,0,1,1,5.168,2.586,2.586,2.586,0,0,1,2.584,5.168Z"/>
    </g>
    <g id="Group_169" data-name="Group 169" transform="translate(49.044)">
      <path id="Path_319" data-name="Path 319" class="cls-1" d="M2.584,5.168A2.584,2.584,0,1,1,5.166,2.586,2.585,2.585,0,0,1,2.584,5.168Z"/>
    </g>
  </g>
</svg>
