<svg id="password" xmlns="http://www.w3.org/2000/svg" width="35.168" height="41.584" viewBox="0 0 35.168 41.584">
  <defs>
    <style>
      .cls-1 {
        fill: #acacac;
      }
    </style>
  </defs>
  <g id="Group_456" data-name="Group 456" transform="translate(0)">
    <g id="Group_455" data-name="Group 455">
      <path id="Path_945" data-name="Path 945" class="cls-1" d="M181.373,404.371a1.624,1.624,0,1,0,0-3.249h-3.249a1.624,1.624,0,1,0,0,3.249Z" transform="translate(-165.373 -368.543)"/>
      <ellipse id="Ellipse_68" data-name="Ellipse 68" class="cls-1" cx="1.624" cy="1.624" rx="1.624" ry="1.624" transform="translate(14.376 8.863)"/>
      <path id="Path_946" data-name="Path 946" class="cls-1" d="M66.627,25.756A1.624,1.624,0,0,0,65,27.381v7.706a3.252,3.252,0,0,1-3.249,3.249H46a3.252,3.252,0,0,1-3.249-3.249V6.5A3.252,3.252,0,0,1,46,3.249h1.056a1.624,1.624,0,0,0,0-3.249H46a6.5,6.5,0,0,0-6.5,6.5V35.087a6.5,6.5,0,0,0,6.5,6.5H61.754a6.5,6.5,0,0,0,6.5-6.5V27.381A1.624,1.624,0,0,0,66.627,25.756Z" transform="translate(-39.5)"/>
      <path id="Path_947" data-name="Path 947" class="cls-1" d="M165.2.122h-3.249c-6.315,0-11.452,4.764-11.452,10.619a9.959,9.959,0,0,0,1.844,5.784l-1.725,4.268a1.624,1.624,0,0,0,2.161,2.1l5.062-2.231a12.075,12.075,0,0,0,3.831.721,1.632,1.632,0,0,0,.279.024H165.2c6.315,0,11.452-4.773,11.452-10.64v-.021C176.652,4.886,171.515.122,165.2.122Zm8.2,10.64c0,4.075-3.68,7.391-8.2,7.391h-2.989a1.634,1.634,0,0,0-.26-.021,8.9,8.9,0,0,1-3.509-.729,1.624,1.624,0,0,0-1.293.008l-2.02.89.576-1.424a1.624,1.624,0,0,0-.27-1.663,6.833,6.833,0,0,1-1.687-4.474c0-4.064,3.68-7.37,8.2-7.37H165.2c4.523,0,8.2,3.306,8.2,7.37Z" transform="translate(-141.484 -0.112)"/>
      <ellipse id="Ellipse_69" data-name="Ellipse 69" class="cls-1" cx="1.624" cy="1.624" rx="1.624" ry="1.624" transform="translate(26.64 8.863)"/>
      <ellipse id="Ellipse_70" data-name="Ellipse 70" class="cls-1" cx="1.624" cy="1.624" rx="1.624" ry="1.624" transform="translate(20.467 8.863)"/>
    </g>
  </g>
</svg>
