<svg xmlns="http://www.w3.org/2000/svg" width="53.938" height="55.798" viewBox="0 0 53.938 55.798">
  <defs>
    <style>
      .cls-1 {
        fill: #c9ddff;
      }
    </style>
  </defs>
  <g id="discount_1_" data-name="discount (1)" transform="translate(-3 -1)">
    <path id="Path_952" data-name="Path 952" class="cls-1" d="M56.118,5.06A5.827,5.827,0,0,0,56.847,3.1a5.537,5.537,0,0,0-3,1.645L19.361,41.523l-.678-.64a9.319,9.319,0,0,0-6.4-2.536c-.314,0-.631.017-.947.048A9.3,9.3,0,0,0,5.593,54.088,9.223,9.223,0,0,0,12.3,56.946a10.492,10.492,0,0,0,9.009-5.152l4.53-7.7A6,6,0,0,1,32.9,41.443l1.3.434ZM12.3,53.226a5.58,5.58,0,1,1,5.58-5.58A5.587,5.587,0,0,1,12.3,53.226Zm17.669-13.95a2.79,2.79,0,1,1,2.79-2.79A2.793,2.793,0,0,1,29.969,39.276Z" transform="translate(0 -0.147)"/>
    <circle id="Ellipse_71" data-name="Ellipse 71" class="cls-1" cx="1.369" cy="1.369" r="1.369" transform="translate(28.622 35.486)"/>
    <path id="Path_953" data-name="Path 953" class="cls-1" d="M50.932,41.049a9.325,9.325,0,0,0-7.35,2.488l-.679.64-2.446-2.61-3.1,5.2-1.147-.382,4.741,8.061A10.492,10.492,0,0,0,49.965,59.6a9.3,9.3,0,0,0,.967-18.55Zm-.967,14.83a5.58,5.58,0,1,1,5.58-5.58A5.587,5.587,0,0,1,49.965,55.88Z" transform="translate(-2.326 -2.801)"/>
    <path id="Path_954" data-name="Path 954" class="cls-1" d="M22.148,35.839,28.7,28.851,6.1,4.748A5.54,5.54,0,0,0,3.1,3.1,5.835,5.835,0,0,0,3.827,5.06Z" transform="translate(-0.007 -0.147)"/>
    <path id="Path_955" data-name="Path 955" class="cls-1" d="M4.86,33.989V36.02H6.72V34.16H8.58V31.37a2.793,2.793,0,0,0-2.79-2.79.931.931,0,0,1-.93-.93v-.93h.93a.931.931,0,0,1,.93.93v.93H8.58v-.93a2.786,2.786,0,0,0-1.86-2.619V23H4.86v1.86H3v2.79a2.793,2.793,0,0,0,2.79,2.79.931.931,0,0,1,.93.93v.93H5.79a.931.931,0,0,1-.93-.93v-.93H3v.93A2.786,2.786,0,0,0,4.86,33.989Z" transform="translate(0 -1.541)"/>
    <path id="Path_956" data-name="Path 956" class="cls-1" d="M60.58,28.58v-.93a2.786,2.786,0,0,0-1.86-2.619V23H56.86v1.86H55v2.79a2.793,2.793,0,0,0,2.79,2.79.931.931,0,0,1,.93.93v.93h-.93a.931.931,0,0,1-.93-.93v-.93H55v.93a2.786,2.786,0,0,0,1.86,2.619V36.02h1.86V34.16h1.86V31.37a2.793,2.793,0,0,0-2.79-2.79.931.931,0,0,1-.93-.93v-.93h.93a.931.931,0,0,1,.93.93v.93Z" transform="translate(-3.641 -1.541)"/>
    <path id="Path_957" data-name="Path 957" class="cls-1" d="M30.72,19.506v1.954h1.86V19.6H36.3V14.95a4.655,4.655,0,0,0-4.65-4.65,2.793,2.793,0,0,1-2.79-2.79V4.72h2.79a2.793,2.793,0,0,1,2.79,2.79V10.3H36.3V7.51a4.659,4.659,0,0,0-3.72-4.556V1H30.72V2.86H27V7.51a4.655,4.655,0,0,0,4.65,4.65,2.793,2.793,0,0,1,2.79,2.79v2.79H31.65a2.793,2.793,0,0,1-2.79-2.79V12.16H27v2.79A4.659,4.659,0,0,0,30.72,19.506Z" transform="translate(-1.681 0)"/>
  </g>
</svg>
