<svg xmlns="http://www.w3.org/2000/svg" width="40.583" height="35.669" viewBox="0 0 40.583 35.669">
  <defs>
    <style>
      .cls-1 {
        fill: #acacac;
      }
    </style>
  </defs>
  <g id="order" transform="translate(0 -31)">
    <path id="Path_960" data-name="Path 960" class="cls-1" d="M286,31h4.756v8.323H286Z" transform="translate(-263.331)"/>
    <path id="Path_961" data-name="Path 961" class="cls-1" d="M150.8,31h-9.591v9.512a1.189,1.189,0,0,1-1.189,1.189H132.89a1.189,1.189,0,0,1-1.189-1.189V31h-9.512A1.189,1.189,0,0,0,121,32.189v14.33a8.207,8.207,0,0,1,1.189-.087,8.325,8.325,0,0,1,5.833,2.4h4.868a4.756,4.756,0,1,1,0,9.512h8.323a4.764,4.764,0,0,1,4.605,3.567H150.8a1.189,1.189,0,0,0,1.189-1.189V32.189A1.189,1.189,0,0,0,150.8,31Z" transform="translate(-111.409)"/>
    <path id="Path_962" data-name="Path 962" class="cls-1" d="M29.8,267.611H19.1a4.756,4.756,0,0,1-4.756-4.756H21.48a2.378,2.378,0,0,0,0-4.756H15.536a5.909,5.909,0,0,0-9.512,0H4.835v-.793a1.189,1.189,0,0,0-1.189-1.189H1.189A1.189,1.189,0,0,0,0,257.307v15.06a1.189,1.189,0,0,0,1.189,1.189H3.646a1.189,1.189,0,0,0,1.189-1.189v-2.378H6.024l7.451,2.378H29.8a2.378,2.378,0,0,0,0-4.756Z" transform="translate(0 -206.888)"/>
  </g>
</svg>
