<svg xmlns="http://www.w3.org/2000/svg" width="351.669" height="108.538" viewBox="0 0 351.669 108.538">
  <defs>
    <style>
      .cls-1, .cls-2 {
        fill: #fff;
      }

      .cls-1 {
        opacity: 0.2;
      }

      .cls-2 {
        opacity: 0.364;
      }
    </style>
  </defs>
  <g id="Group_939" data-name="Group 939" transform="translate(-77.843 -188.314)">
    <path id="Path_1012" data-name="Path 1012" class="cls-1" d="M1326.906,563.585a42.924,42.924,0,0,0-38.465-42.372,66.35,66.35,0,0,0-63.471-47.03,67.138,67.138,0,0,0-13.312,1.331,57.08,57.08,0,0,0-94.459,10.331,60.868,60.868,0,0,0-65.936,35.28c-1.1-.087-2.218-.142-3.343-.142a42.924,42.924,0,0,0-42.925,42.6Z" transform="translate(-897.394 -266.733)"/>
    <path id="Path_1013" data-name="Path 1013" class="cls-2" d="M1111.662,491.012a14.223,14.223,0,0,0-12.746-14.04,21.985,21.985,0,0,0-21.031-15.584,22.249,22.249,0,0,0-4.411.441,18.914,18.914,0,0,0-31.3,3.423,20.169,20.169,0,0,0-21.848,11.69c-.366-.029-.735-.047-1.108-.047A14.223,14.223,0,0,0,1005,491.012Z" transform="translate(-927.153 -230.697)"/>
  </g>
</svg>
