<svg xmlns="http://www.w3.org/2000/svg" width="18.437" height="32.558" viewBox="0 0 18.437 32.558">
  <defs>
    <style>
      .cls-1 {
        fill: #fff;
      }
    </style>
  </defs>
  <g id="phone_2_" data-name="phone (2)" transform="translate(-5.951)">
    <path id="Path_562" data-name="Path 562" class="cls-1" d="M22.019,0H8.32A2.37,2.37,0,0,0,5.951,2.372V30.189A2.368,2.368,0,0,0,8.32,32.558h13.7a2.37,2.37,0,0,0,2.369-2.369V2.372A2.371,2.371,0,0,0,22.019,0ZM11.789,1.44h6.763c.171,0,.31.255.31.571s-.139.572-.31.572H11.789c-.172,0-.308-.256-.308-.572S11.617,1.44,11.789,1.44Zm3.381,28.777a1.513,1.513,0,1,1,1.51-1.514A1.515,1.515,0,0,1,15.171,30.217Zm7.442-5.184H7.727V4H22.613V25.034Z"/>
  </g>
</svg>
