<svg xmlns="http://www.w3.org/2000/svg" width="24.078" height="19.123" viewBox="0 0 24.078 19.123">
  <defs>
    <style>
      .cls-1 {
        fill: #fff;
      }
    </style>
  </defs>
  <g id="mail_3_" data-name="mail (3)" transform="translate(1.664 -62.945)">
    <path id="Path_560" data-name="Path 560" class="cls-1" d="M13.739,73.16a2.373,2.373,0,0,0,2.361,0h0l10.716-7.144a2.6,2.6,0,0,0-2.452-1.749H5.475a2.6,2.6,0,0,0-2.452,1.749L13.739,73.16h0Z" transform="translate(-4.545 -1.322)"/>
    <path id="Path_561" data-name="Path 561" class="cls-1" d="M14,142.211h0a3.776,3.776,0,0,1-3.926,0h0L0,135.494v12.089a2.6,2.6,0,0,0,2.594,2.594H21.483a2.6,2.6,0,0,0,2.594-2.594V135.494Z" transform="translate(-1.664 -68.109)"/>
  </g>
</svg>
