<svg xmlns="http://www.w3.org/2000/svg" width="151" height="139.529" viewBox="0 0 151 139.529">
  <defs>
    <style>
      .cls-1, .cls-5, .cls-7 {
        fill: #fff;
      }

      .cls-1, .cls-2, .cls-8 {
        stroke: #495872;
      }

      .cls-2, .cls-6 {
        fill: #0e2549;
      }

      .cls-2 {
        stroke-width: 2px;
      }

      .cls-3, .cls-8 {
        fill: #495872;
      }

      .cls-4 {
        fill: #eff5ff;
        stroke: #fff;
      }

      .cls-7 {
        stroke: #0e2549;
      }

      .cls-9 {
        fill: #cdd6e5;
      }
    </style>
  </defs>
  <g id="Group_938" data-name="Group 938" transform="translate(-365.69 -2400.594)">
    <g id="Group_409" data-name="Group 409" transform="translate(-916.29 1269.091)">
      <g id="Group_405" data-name="Group 405" transform="translate(1282.98 1132.254)">
        <rect id="Rectangle_162" data-name="Rectangle 162" class="cls-1" width="48.52" height="126.619" transform="translate(0.371 0)"/>
        <path id="Path_862" data-name="Path 862" class="cls-2" d="M1282.98,1131.179v126.741h49.263V1131.179Zm48.52.743v24.606h-47.777V1144.86h46.255l.161-.743h-46.417v-12.2Zm-47.777,101.116H1331.5v11.668h-47.777Zm0-.742v-11.668H1331.5V1232.3Zm47.777-12.411h-47.777v-11.668H1331.5Zm0-12.41h-47.777v-11.668H1331.5Zm0-12.411h-47.777v-12.972H1331.5Zm-47.777-13.715v-11.668H1331.5v11.668Zm0-12.41v-11.668H1331.5v11.668Zm0,88.24v-11.729H1331.5v11.729Z" transform="translate(-1282.98 -1130.931)"/>
      </g>
      <g id="Group_406" data-name="Group 406" transform="translate(1330.5 1181.672)">
        <rect id="Rectangle_163" data-name="Rectangle 163" class="cls-3" width="48.52" height="75.829" transform="translate(0.371 0.371)"/>
        <path id="Path_863" data-name="Path 863" class="cls-4" d="M1479,1410.678v76.572h49.262v-76.572Zm.743,14.4h47.777V1436.8h-47.777Zm47.777-13.653v12.911h-47.777v-12.911Zm-47.777,75.087v-48.961h47.777v48.961Z" transform="translate(-1479.004 -1410.678)"/>
      </g>
      <g id="Group_407" data-name="Group 407" transform="translate(1316.806 1213.308)">
        <path id="Path_864" data-name="Path 864" class="cls-5" d="M1434.1,1535.948a13.332,13.332,0,0,1-12.962,13.194v-13.194Z" transform="translate(-1420.769 -1535.577)"/>
        <path id="Path_865" data-name="Path 865" class="cls-5" d="M1723.185,1549.142a13.388,13.388,0,0,1-13.026-13.194h13.026Z" transform="translate(-1638.25 -1535.577)"/>
        <path id="Path_866" data-name="Path 866" class="cls-5" d="M1434.1,1679.829a12.93,12.93,0,0,0-12.962-12.731v12.731Z" transform="translate(-1420.769 -1634.265)"/>
        <path id="Path_867" data-name="Path 867" class="cls-5" d="M1709.457,1678.888a13.406,13.406,0,0,1,13.2-13.041v13.041Z" transform="translate(-1637.722 -1633.323)"/>
        <path id="Path_869" data-name="Path 869" class="cls-6" d="M1444.094,1612.049a.372.372,0,0,1-.371-.371v-15.249a.371.371,0,0,1,.743,0v15.249A.372.372,0,0,1,1444.094,1612.049Z" transform="translate(-1437.762 -1580.808)"/>
        <path id="Path_870" data-name="Path 870" class="cls-6" d="M1735.939,1612.049a.371.371,0,0,1-.371-.371v-15.249a.371.371,0,1,1,.743,0v15.249A.371.371,0,0,1,1735.939,1612.049Z" transform="translate(-1657.37 -1580.808)"/>
        <path id="Path_871" data-name="Path 871" class="cls-6" d="M1538.663,1554.794H1488.34a.371.371,0,0,1,0-.743h50.323a.371.371,0,0,1,0,.743Z" transform="translate(-1471.056 -1549.199)"/>
        <path id="Path_872" data-name="Path 872" class="cls-6" d="M1539.5,1696.867H1489.18a.371.371,0,1,1,0-.742H1539.5a.371.371,0,1,1,0,.742Z" transform="translate(-1471.688 -1656.106)"/>
        <path id="Path_873" data-name="Path 873" class="cls-5" d="M1577.4,1596.414c0,6.38-4.22,11.553-9.427,11.553s-9.427-5.172-9.427-11.553,4.221-11.553,9.427-11.553S1577.4,1590.034,1577.4,1596.414Z" transform="translate(-1524.163 -1572.383)"/>
        <path id="Path_874" data-name="Path 874" class="cls-6" d="M1566.843,1607.21c-5.4,0-9.8-5.349-9.8-11.924s4.4-11.924,9.8-11.924,9.8,5.349,9.8,11.924S1572.246,1607.21,1566.843,1607.21Zm0-23.105c-4.993,0-9.056,5.016-9.056,11.181s4.063,11.181,9.056,11.181,9.056-5.016,9.056-11.181S1571.836,1584.1,1566.843,1584.1Z" transform="translate(-1523.035 -1571.255)"/>
        <path id="Path_875" data-name="Path 875" class="cls-6" d="M1587.226,1608.056c0-1.654-.571-3.209-4.449-4.173h0V1598.7a2.973,2.973,0,0,1,2.969,2.134.556.556,0,0,0,.529.394h0a.554.554,0,0,0,.537-.7,4.036,4.036,0,0,0-4.035-2.811v-1.283a.371.371,0,0,0-.743,0v1.289c-2.65.157-3.843,1.768-3.843,3.488,0,1.91,1.168,2.857,3.843,3.574v6.083a3.394,3.394,0,0,1-3.227-2.5.552.552,0,0,0-1.059.314,4.314,4.314,0,0,0,4.287,3.138v1.823a.371.371,0,0,0,.743,0v-1.813C1585.813,1611.749,1587.226,1610.036,1587.226,1608.056Zm-7.894-6.91c0-1.437.949-2.34,2.7-2.449v4.987C1580.061,1603.118,1579.332,1602.5,1579.332,1601.146Zm3.444,9.738v-5.909c2.678.733,3.308,1.678,3.308,3.159C1586.084,1609.594,1585.162,1610.826,1582.776,1610.885Z" transform="translate(-1538.596 -1580.808)"/>
      </g>
      <g id="Group_408" data-name="Group 408" transform="matrix(-0.53, 0.848, -0.848, -0.53, 1432.282, 1177.676)">
        <path id="Path_876" data-name="Path 876" class="cls-7" d="M1761.6,1425.132a15.6,15.6,0,1,1,4.789-21.537A15.6,15.6,0,0,1,1761.6,1425.132Z" transform="translate(-1735.117 -1392.163)"/>
        <path id="Path_877" data-name="Path 877" class="cls-8" d="M1771.058,1418.414a.506.506,0,0,0-.7-.155l-1.336.85c-1.905-2.6-4.345-2.77-6.119-1.642-1.969,1.253-2.188,3.074-1.185,6.288l-6.311,4.015a4.157,4.157,0,0,1,.483-4.946.678.678,0,0,0-1.023-.891c-1.287,1.446-1.985,3.639-.45,6.467l-1.892,1.2a.5.5,0,0,0,.542.852l1.88-1.2c2.08,3.056,4.771,3.383,6.813,2.084,1.707-1.087,2.938-2.7,1.406-7.312l5.379-3.422a3.638,3.638,0,0,1-.277,4.438.681.681,0,0,0,1.022.9c1.163-1.333,1.719-3.453.278-5.99l1.331-.847A.505.505,0,0,0,1771.058,1418.414Zm-7.339.2c1.477-.94,3.025-.563,4.288,1.145l-5.151,3.276C1762.158,1420.65,1762.323,1419.5,1763.719,1418.612Zm-2.789,11.6c-1.5.957-3.376.819-5-1.574l6.11-3.886C1763.023,1427.974,1762.456,1429.241,1760.93,1430.212Z" transform="translate(-1743.886 -1404.377)"/>
        <path id="Path_878" data-name="Path 878" class="cls-8" d="M1763.177,1397.03a16.161,16.161,0,0,0-1-1.4c-3.445-5.248-7.27-8.4-11.389-9.377-3.75-.885-7.775.018-11.967,2.685a15.5,15.5,0,0,0-7.138,9.939c-.88,4.38.289,9.26,3.374,14.19q.352.692.775,1.361a16.215,16.215,0,0,0,22.37,4.974h0a16.205,16.205,0,0,0,4.973-22.371Zm-30.5,2.045a14.317,14.317,0,0,1,6.69-9.286c3.953-2.515,7.719-3.374,11.192-2.553a15.3,15.3,0,0,1,7.513,4.738,16.2,16.2,0,0,0-24.684,15.345A15.771,15.771,0,0,1,1732.675,1399.075Zm31.47,9.909a14.992,14.992,0,1,1-14.669-18.258,15.108,15.108,0,0,1,3.285.363,15,15,0,0,1,11.384,17.895Z" transform="translate(-1731.4 -1385.923)"/>
      </g>
      <g id="Group_410" data-name="Group 410" transform="translate(1316.806 1212.461)">
        <rect id="Rectangle_149" data-name="Rectangle 149" class="cls-9" width="107.504" height="57.453" transform="translate(0.411 0.706) rotate(-0.157)"/>
        <path id="Path_794" data-name="Path 794" class="cls-6" d="M-790.874,652.484a.411.411,0,0,1-.411-.409l-.053-19.386a.411.411,0,0,1,.41-.412h0a.411.411,0,0,1,.411.409l.053,19.386a.41.41,0,0,1-.41.411Z" transform="translate(798.783 -612.406)"/>
        <path id="Path_795" data-name="Path 795" class="cls-6" d="M-455.451,651.566a.411.411,0,0,1-.411-.41l-.053-19.386a.411.411,0,0,1,.41-.412h0a.411.411,0,0,1,.411.41l.053,19.386a.41.41,0,0,1-.41.412Z" transform="translate(555.192 -611.74)"/>
        <path id="Path_796" data-name="Path 796" class="cls-6" d="M-740.206,584.216a.411.411,0,0,1-.411-.41.411.411,0,0,1,.41-.412l63.973-.175h0a.411.411,0,0,1,.411.41.41.41,0,0,1-.41.412l-63.974.175Z" transform="translate(761.948 -576.78)"/>
        <path id="Path_797" data-name="Path 797" class="cls-6" d="M-738.792,747.5a.41.41,0,0,1-.411-.41.411.411,0,0,1,.41-.412l63.973-.175h0a.41.41,0,0,1,.41.41.41.41,0,0,1-.41.412l-63.973.175Z" transform="translate(760.922 -695.36)"/>
        <path id="Path_798" data-name="Path 798" class="cls-3" d="M-635.52,633.363c.022,8.111-5.325,14.7-11.944,14.719s-12-6.543-12.024-14.654,5.326-14.7,11.944-14.719S-635.542,625.253-635.52,633.363Z" transform="translate(703.031 -602.554)"/>
        <path id="Path_799" data-name="Path 799" class="cls-5" d="M-625.32,646.976c-.006-2.1-.737-4.077-5.67-5.29l-.063-.016-.018-6.579a3.794,3.794,0,0,1,3.843,2.7.708.708,0,0,0,.675.5.7.7,0,0,0,.679-.895c-.528-1.777-2.109-3.454-5.2-3.561l0-1.629a.41.41,0,0,0-.411-.41h0a.411.411,0,0,0-.41.412l0,1.636c-3.41.188-4.941,2.25-4.935,4.45.007,2.443,1.512,3.642,4.959,4.546l.021,7.723a4.327,4.327,0,0,1-4.173-3.168.7.7,0,0,0-.669-.493.7.7,0,0,0-.676.9c.56,1.947,2.121,3.789,5.522,3.976l.006,2.316a.411.411,0,0,0,.411.409h0a.41.41,0,0,0,.41-.412l-.006-2.3C-627.121,651.7-625.313,649.507-625.32,646.976Zm-10.06-8.756c0-1.844,1.221-3,3.487-3.126l.017,6.359C-634.43,640.736-635.374,639.958-635.379,638.22Zm4.351,12.37-.02-7.532c3.463.924,4.272,2.128,4.278,4.022C-626.766,648.948-627.949,650.527-631.028,650.59Z" transform="translate(686.987 -612.061)"/>
        <path id="Path_800" data-name="Path 800" class="cls-6" d="M-710.047,617.973l-.159-58.274-91.026.249h0l-17.3.047.159,58.274,17.3-.047h0l73.423-.2v.248l17.6-.048v-.248Zm-.978-57.241.009,3.37.035,12.575c-8.3-.212-15.525-7.5-15.777-15.9Zm-106.682.083,15.651-.043c-.2,8.405-7.355,15.729-15.607,15.988Zm.155,56.631-.042-15.359a16.119,16.119,0,0,1,10.906,4.589A15.5,15.5,0,0,1-801.9,617.4Zm16.467-.046a16.309,16.309,0,0,0-5.032-11.314,16.908,16.908,0,0,0-11.48-4.816l-.065-23.694A16.6,16.6,0,0,0-806.2,572.4a17.453,17.453,0,0,0,4.961-11.628l73.66-.2a17.381,17.381,0,0,0,5.073,11.811,16.956,16.956,0,0,0,11.528,5.115l.064,23.341a17.405,17.405,0,0,0-11.607,5.076,17.015,17.015,0,0,0-5.112,11.289Zm74.274-.2a16.747,16.747,0,0,1,15.9-15.547l.042,15.5Z" transform="translate(818.531 -559.699)"/>
      </g>
    </g>
  </g>
</svg>
