<svg xmlns="http://www.w3.org/2000/svg" width="168.178" height="147.442" viewBox="0 0 168.178 147.442">
  <defs>
    <style>
      .cls-1, .cls-2, .cls-3, .cls-4 {
        fill: #fff;
      }

      .cls-1, .cls-2, .cls-5 {
        stroke: #495872;
      }

      .cls-2 {
        stroke-width: 3px;
      }

      .cls-4 {
        stroke: #0e2549;
      }

      .cls-5, .cls-7 {
        fill: #495872;
      }

      .cls-6 {
        fill: #cdd6e5;
      }

      .cls-8 {
        fill: #0e2549;
      }

      .cls-9 {
        fill: #1b2746;
      }
    </style>
  </defs>
  <g id="Group_937" data-name="Group 937" transform="translate(-1010.216 -2401.268)">
    <g id="Group_388" data-name="Group 388" transform="translate(1011.517 2402.568)">
      <rect id="Rectangle_123" data-name="Rectangle 123" class="cls-1" width="28.697" height="26.637" transform="translate(63.691 106.256)"/>
      <rect id="Rectangle_124" data-name="Rectangle 124" class="cls-2" width="153.866" height="110.674" rx="5" transform="translate(0.199 0.199)"/>
      <rect id="Rectangle_125" data-name="Rectangle 125" class="cls-3" width="136.62" height="88.766" transform="translate(9.473 7.766)"/>
      <rect id="Rectangle_126" data-name="Rectangle 126" class="cls-4" width="59.283" height="12.934" transform="translate(48.398 132.508)"/>
      <path id="Path_727" data-name="Path 727" class="cls-5" d="M-1048.019,686.516H-1107.7V673.183h59.681Zm-59.283-.4h58.885V673.581H-1107.3Z" transform="translate(1155.899 -540.874)"/>
      <path id="Path_728" data-name="Path 728" class="cls-6" d="M-544.1-227.883a1.665,1.665,0,0,1-1.665,1.665,1.665,1.665,0,0,1-1.665-1.665,1.665,1.665,0,0,1,1.665-1.665A1.665,1.665,0,0,1-544.1-227.883Z" transform="translate(669.996 242.029)"/>
      <circle id="Ellipse_43" data-name="Ellipse 43" class="cls-6" cx="1.665" cy="1.665" r="1.665" transform="translate(128.585 12.453)"/>
      <circle id="Ellipse_44" data-name="Ellipse 44" class="cls-6" cx="1.665" cy="1.665" r="1.665" transform="translate(134.6 12.453)"/>
      <path id="Path_729" data-name="Path 729" class="cls-7" d="M-903.423,436.932a3.361,3.361,0,0,1-3.361,3.361,3.361,3.361,0,0,1-3.361-3.361,3.361,3.361,0,0,1,3.361-3.361A3.361,3.361,0,0,1-903.423,436.932Z" transform="translate(984.567 -333.068)"/>
    </g>
    <g id="Group_389" data-name="Group 389" transform="translate(1025.418 2422.188)">
      <rect id="Rectangle_127" data-name="Rectangle 127" class="cls-7" width="21.165" height="11.019" transform="translate(42.717 23.111)"/>
      <rect id="Rectangle_128" data-name="Rectangle 128" class="cls-7" width="20.361" height="11.019" transform="translate(63.882 11.901)"/>
      <rect id="Rectangle_129" data-name="Rectangle 129" class="cls-7" width="21.433" height="11.019" transform="translate(21.284 34.209)"/>
      <rect id="Rectangle_131" data-name="Rectangle 131" class="cls-7" width="20.818" height="11.019" transform="translate(0.199 45.438)"/>
      <path id="Path_730" data-name="Path 730" class="cls-7" d="M-1366.084-175.761v67.9h20.818v-.914a.2.2,0,0,0,.2.2.2.2,0,0,0,.2-.2v.914h21.3v-.914a.2.2,0,0,0,.2.2.2.2,0,0,0,.2-.2v.914h20.767v-.914a.2.2,0,0,0,.2.2.2.2,0,0,0,.2-.2v.914h19.963v-.914a.2.2,0,0,0,.2.2.2.2,0,0,0,.2-.2v.914h20.128v-2.344a.2.2,0,0,0,.2.2.2.2,0,0,0,.2-.2v2.344h20.275v-67.9Zm104.57,45.558v10.762h-20.128V-130.2Zm-20.526,0v10.762H-1302V-130.2Zm-20.361,0v10.762h-20.767V-130.2Zm-21.165,0v10.762h-21.3V-130.2Zm-21.7,0v10.762h-20.419V-130.2Zm84.151,10.762V-130.2h19.877v10.762Zm-104.57,11.177v-10.762h20.419v10.762Zm20.818,0v-10.762h21.3v10.762Zm21.7,0v-10.762h20.767v10.762Zm21.165,0v-10.762h19.963v10.762Zm20.361,0v-10.762h20.128v10.762Zm40.4,0h-19.877v-10.762h19.877Zm0-67.1v11.225h-19.877v-11.169a.2.2,0,0,0-.009-.056Zm-19.877,33.533v-10.733h19.877v10.733Zm19.877.4v10.779h-19.877v-10.779Zm-19.877-11.529V-163.74h19.877v10.779Zm-20.526-22.4h20.137a.2.2,0,0,0-.009.056v11.169h-20.128Zm0,11.623h20.128v10.779h-20.128Zm0,11.177h20.128v10.733h-20.128Zm0,11.131h20.128v10.779h-20.128ZM-1302-175.363h19.963v11.225H-1302Zm0,11.623h19.963v10.779H-1302Zm0,11.177h19.963v10.733H-1302Zm0,11.131h19.963v10.779H-1302Zm-21.165-33.931h20.767v11.225h-20.767Zm0,11.623h20.767v10.779h-20.767Zm0,11.177h20.767v10.733h-20.767Zm0,11.131h20.767v10.779h-20.767Zm-.4-33.931v11.225h-21.3v-11.169a.191.191,0,0,0-.009-.056Zm-21.3,33.533v-10.733h21.3v10.733Zm21.3.4v10.779h-21.3v-10.779Zm-21.3-11.529V-163.74h21.3v10.779Zm-20.818-22.4h20.428a.194.194,0,0,0-.009.056v11.169h-20.419Zm0,11.623h20.419v10.779h-20.419Zm0,11.177h20.419v10.733h-20.419Zm0,11.131h20.419v10.779h-20.419Z" transform="translate(1366.084 175.761)"/>
    </g>
    <rect id="Rectangle_136" data-name="Rectangle 136" class="cls-6" width="57.894" height="43.489" transform="translate(1120.5 2458.429)"/>
    <path id="Path_769" data-name="Path 769" class="cls-8" d="M-563.965,194.558a.2.2,0,0,0-.281.016.2.2,0,0,0,.016.281l1.649,1.472h-41.593V172.194l1.387,1.765a.2.2,0,0,0,.157.076.2.2,0,0,0,.123-.042.2.2,0,0,0,.033-.28l-1.879-2.391-2.065,2.313a.2.2,0,0,0,.016.281.2.2,0,0,0,.281-.016l1.549-1.735v24.56h42.147l-1.863,1.464a.2.2,0,0,0-.034.28.2.2,0,0,0,.157.076.2.2,0,0,0,.123-.043l2.392-1.879Z" transform="translate(1732.718 2296.938)"/>
    <path id="Path_770" data-name="Path 770" class="cls-8" d="M-577.136,208.4l-6.512-14.3-8.188,8.957a.2.2,0,0,1-.281.013.2.2,0,0,1-.013-.281l8.594-9.4,6.507,14.285,6.253-7.085,4.089,4.676,11.191-9.485a.2.2,0,0,1,.281.023.2.2,0,0,1-.023.281l-11.49,9.738-4.048-4.63Z" transform="translate(1720.327 2277.8)"/>
    <path id="Path_771" data-name="Path 771" class="cls-7" d="M-532.458,189.369a.954.954,0,0,1-.953.954.954.954,0,0,1-.954-.954.953.953,0,0,1,.954-.954A.954.954,0,0,1-532.458,189.369Z" transform="translate(1670.185 2282.114)"/>
    <path id="Path_772" data-name="Path 772" class="cls-9" d="M-534.712,189.22a1.154,1.154,0,0,1-1.153-1.153,1.154,1.154,0,0,1,1.153-1.153,1.154,1.154,0,0,1,1.153,1.153A1.154,1.154,0,0,1-534.712,189.22Zm0-1.907a.755.755,0,0,0-.754.754.755.755,0,0,0,.754.755.755.755,0,0,0,.755-.755A.755.755,0,0,0-534.712,187.313Z" transform="translate(1671.486 2283.415)"/>
    <path id="Path_773" data-name="Path 773" class="cls-7" d="M-483.995,297.5a.953.953,0,0,1-.954.953.953.953,0,0,1-.954-.953.954.954,0,0,1,.954-.954A.954.954,0,0,1-483.995,297.5Z" transform="translate(1628.155 2188.336)"/>
    <path id="Path_774" data-name="Path 774" class="cls-9" d="M-486.248,297.353A1.154,1.154,0,0,1-487.4,296.2a1.154,1.154,0,0,1,1.153-1.153A1.154,1.154,0,0,1-485.1,296.2,1.154,1.154,0,0,1-486.248,297.353Zm0-1.907a.755.755,0,0,0-.754.754.755.755,0,0,0,.754.754.755.755,0,0,0,.754-.754A.755.755,0,0,0-486.248,295.446Z" transform="translate(1629.455 2189.636)"/>
    <path id="Path_775" data-name="Path 775" class="cls-7" d="M-436.984,243.675a.953.953,0,0,1-.953.953.953.953,0,0,1-.954-.953.954.954,0,0,1,.954-.954A.953.953,0,0,1-436.984,243.675Z" transform="translate(1587.384 2235.017)"/>
    <path id="Path_776" data-name="Path 776" class="cls-9" d="M-439.238,243.526a1.154,1.154,0,0,1-1.153-1.153,1.154,1.154,0,0,1,1.153-1.153,1.154,1.154,0,0,1,1.153,1.153A1.154,1.154,0,0,1-439.238,243.526Zm0-1.907a.755.755,0,0,0-.754.754.755.755,0,0,0,.754.754.755.755,0,0,0,.754-.754A.755.755,0,0,0-439.238,241.619Z" transform="translate(1588.685 2236.318)"/>
    <path id="Path_777" data-name="Path 777" class="cls-7" d="M-404.967,278.719a.953.953,0,0,1-.954.953.953.953,0,0,1-.953-.953.953.953,0,0,1,.953-.954A.954.954,0,0,1-404.967,278.719Z" transform="translate(1559.617 2204.625)"/>
    <path id="Path_778" data-name="Path 778" class="cls-9" d="M-407.222,278.57a1.154,1.154,0,0,1-1.152-1.153,1.154,1.154,0,0,1,1.152-1.153,1.154,1.154,0,0,1,1.153,1.153A1.154,1.154,0,0,1-407.222,278.57Zm0-1.907a.755.755,0,0,0-.754.755.755.755,0,0,0,.754.754.755.755,0,0,0,.755-.754A.755.755,0,0,0-407.222,276.663Z" transform="translate(1560.918 2205.926)"/>
    <path id="Path_779" data-name="Path 779" class="cls-7" d="M-320.121,206.426a.954.954,0,0,1-.954.953.954.954,0,0,1-.954-.953.954.954,0,0,1,.954-.953A.954.954,0,0,1-320.121,206.426Z" transform="translate(1486.033 2267.321)"/>
    <path id="Path_780" data-name="Path 780" class="cls-9" d="M-322.375,206.278a1.154,1.154,0,0,1-1.153-1.153,1.154,1.154,0,0,1,1.153-1.153,1.154,1.154,0,0,1,1.153,1.153A1.154,1.154,0,0,1-322.375,206.278Zm0-1.907a.755.755,0,0,0-.754.754.755.755,0,0,0,.754.754.755.755,0,0,0,.754-.754A.755.755,0,0,0-322.375,204.371Z" transform="translate(1487.334 2268.622)"/>
  </g>
</svg>
