<svg xmlns="http://www.w3.org/2000/svg" width="147.637" height="158.138" viewBox="0 0 147.637 158.138">
  <defs>
    <style>
      .cls-1, .cls-4 {
        fill: #fff;
      }

      .cls-1, .cls-5 {
        stroke: #495872;
      }

      .cls-1 {
        stroke-width: 3px;
      }

      .cls-2 {
        fill: #0e2549;
      }

      .cls-3, .cls-5 {
        fill: #495872;
      }

      .cls-6 {
        fill: #cdd6e5;
      }
    </style>
  </defs>
  <g id="Group_935" data-name="Group 935" transform="translate(-349 -2156.374)">
    <rect id="Rectangle_150" data-name="Rectangle 150" class="cls-1" width="88.06" height="150.462" rx="8" transform="translate(407.076 2157.874)"/>
    <path id="Path_807" data-name="Path 807" class="cls-2" d="M989.308,922.819H976.857a.21.21,0,0,1,0-.42h12.451a.21.21,0,0,1,0,.42Z" transform="translate(-527.444 1274.732)"/>
    <path id="Rectangle_151" data-name="Rectangle 151" class="cls-3" d="M3.4,0H50.761a3.4,3.4,0,0,1,3.4,3.4v0a3.4,3.4,0,0,1-3.4,3.4H3.4A3.4,3.4,0,0,1,0,3.4v0A3.4,3.4,0,0,1,3.4,0Z" transform="translate(423.732 2195.159)"/>
    <path id="Path_810" data-name="Path 810" class="cls-4" d="M1042.7,1271.83a10.624,10.624,0,0,1,10.47-10.338v10.338Z" transform="translate(-584.25 983.104)"/>
    <path id="Path_811" data-name="Path 811" class="cls-4" d="M861.27,1260.508a10.639,10.639,0,0,1,10.35,10.476H861.27Z" transform="translate(-428.218 983.95)"/>
    <path id="Path_812" data-name="Path 812" class="cls-5" d="M877.028,929.546a3.252,3.252,0,0,0-2.367-.931H838.795v.42a2.939,2.939,0,0,1,2.936,2.936v53.786h36.286V931.893A3.254,3.254,0,0,0,877.028,929.546Zm-34.877,55.792V975.284a10.49,10.49,0,0,1,9.927,10.053Zm10.344,0a10.813,10.813,0,0,0-3.137-7.268,10.547,10.547,0,0,0-7.207-3.2v-42.9a3.358,3.358,0,0,0-1.732-2.936h34.247a2.86,2.86,0,0,1,2.931,2.859V975a10.813,10.813,0,0,0-7.265,3.131,10.533,10.533,0,0,0-3.2,7.2Zm25.1,0H867.549a10.481,10.481,0,0,1,10.048-9.916Z" transform="translate(-408.889 1269.386)"/>
    <path id="Path_813" data-name="Path 813" class="cls-5" d="M955.4,1298.175h-12.1a.21.21,0,0,1,0-.42h12.1a.21.21,0,0,1,0,.42Z" transform="translate(-499.58 945.917)"/>
    <ellipse id="Ellipse_45" data-name="Ellipse 45" class="cls-4" cx="9.168" cy="7.481" rx="9.168" ry="7.481" transform="translate(440.974 2214.813)"/>
    <path id="Path_816" data-name="Path 816" class="cls-5" d="M925.739,1062.608c-5.171,0-9.378-3.45-9.378-7.691s4.207-7.691,9.378-7.691,9.378,3.45,9.378,7.691S930.91,1062.608,925.739,1062.608Zm0-14.962c-4.94,0-8.958,3.262-8.958,7.271s4.019,7.271,8.958,7.271,8.958-3.262,8.958-7.271S930.679,1047.646,925.739,1047.646Z" transform="translate(-475.597 1167.378)"/>
    <path id="Path_817" data-name="Path 817" class="cls-5" d="M944.532,1078.937H943.5c-.167-2.016-1.423-2.925-2.761-2.925-1.486,0-2.238.889-2.8,2.925h-4.85a2.67,2.67,0,0,1,1.971-2.436.438.438,0,0,0-.249-.84,3.4,3.4,0,0,0-2.479,3.276h-1.458a.42.42,0,0,0,0,.84h1.44c.1,2.326,1.448,3.406,2.992,3.406,1.294,0,2.512-.443,3.279-3.406h4.136a2.329,2.329,0,0,1-1.682,2.231.44.44,0,0,0,.244.846,3.173,3.173,0,0,0,2.227-3.077h1.023a.42.42,0,0,0,0-.84Zm-3.744-2.018c1.106,0,1.81.709,1.932,2.018h-3.91C939.25,1077.464,939.74,1076.918,940.788,1076.918Zm-5.546,5.358c-1.133,0-2.093-.7-2.179-2.5h4.652C937.139,1081.8,936.395,1082.277,935.242,1082.277Z" transform="translate(-487.716 1142.938)"/>
    <rect id="Rectangle_154" data-name="Rectangle 154" class="cls-6" width="78.081" height="48.918" rx="5" transform="translate(349.01 2265.594)"/>
    <rect id="Rectangle_155" data-name="Rectangle 155" class="cls-3" width="78.081" height="8.231" transform="translate(349 2276.51)"/>
    <rect id="Rectangle_156" data-name="Rectangle 156" class="cls-4" width="64.471" height="5.645" transform="translate(354.756 2291.969)"/>
  </g>
</svg>
